<?xml version="1.0" encoding="UTF-8" standalone="no"?>
<!-- Created with Inkscape (http://www.inkscape.org/) -->

<svg
   xmlns:dc="http://purl.org/dc/elements/1.1/"
   xmlns:cc="http://creativecommons.org/ns#"
   xmlns:rdf="http://www.w3.org/1999/02/22-rdf-syntax-ns#"
   xmlns:svg="http://www.w3.org/2000/svg"
   xmlns="http://www.w3.org/2000/svg"
   xmlns:sodipodi="http://sodipodi.sourceforge.net/DTD/sodipodi-0.dtd"
   xmlns:inkscape="http://www.inkscape.org/namespaces/inkscape"
   width="60.412308mm"
   height="58.771385mm"
   viewBox="0 0 214.05936 208.24506"
   id="svg10651"
   version="1.1"
   inkscape:version="0.91 r13725"
   sodipodi:docname="Emblema Cofradía del Santísimo Cristo de la Expiración y del Silencio.svg">
  <defs
     id="defs10653" />
  <sodipodi:namedview
     id="base"
     pagecolor="#ffffff"
     bordercolor="#666666"
     borderopacity="1.0"
     inkscape:pageopacity="0.0"
     inkscape:pageshadow="2"
     inkscape:zoom="0.98994949"
     inkscape:cx="287.64413"
     inkscape:cy="114.41591"
     inkscape:document-units="px"
     inkscape:current-layer="layer1"
     showgrid="false"
     fit-margin-top="0"
     fit-margin-left="0"
     fit-margin-right="0"
     fit-margin-bottom="0"
     inkscape:window-width="1680"
     inkscape:window-height="1027"
     inkscape:window-x="-8"
     inkscape:window-y="-8"
     inkscape:window-maximized="1"
     inkscape:snap-nodes="false" />
  <metadata
     id="metadata10656">
    <rdf:RDF>
      <cc:Work
         rdf:about="">
        <dc:format>image/svg+xml</dc:format>
        <dc:type
           rdf:resource="http://purl.org/dc/dcmitype/StillImage" />
        <dc:title></dc:title>
      </cc:Work>
    </rdf:RDF>
  </metadata>
  <g
     inkscape:label="Capa 1"
     inkscape:groupmode="layer"
     id="layer1"
     transform="translate(143.57042,-328.84397)">
    <g
       transform="matrix(0.12421625,0,0,0.12421625,82.606844,482.23849)"
       id="g12113" />
    <path
       id="path11391"
       style="fill:#8e6035;fill-opacity:1"
       d="m -9.61759,519.19065 c 0,-1.15614 -1.98709,-2.75475 -3.39904,-2.73452 -0.7336,0.0139 -2.30189,0.77637 -3.48509,1.7019 l -2.1513,1.68277 4.51771,0.0208 c 2.48475,0.0139 4.51772,-0.29096 4.51772,-0.66921 z M 4.15068,348.61499 c 0,-1.25749 -3.62788,-2.46982 -9.30302,-3.10868 -5.44306,-0.61309 -5.40226,0.18982 0.12386,2.4365 4.02541,1.63656 9.17913,2.01398 9.17913,0.67197 z m -59.83512,0.29234 c 4.3014,-2.05118 3.823,-3.16486 -1.04644,-2.43608 -5.08191,0.76058 -5.7219,1.14457 -4.45413,2.6721 1.28507,1.54838 1.80546,1.52608 5.50057,-0.23623 z m 75.42702,10.24705 c -0.49352,-0.92219 -2.26056,-2.87362 -3.9267,-4.33652 -2.39527,-2.10307 -3.66861,-2.60241 -6.08348,-2.38571 -1.67977,0.15033 -3.2127,0.43297 -3.4065,0.62625 -0.40416,0.40388 13.59602,8.41506 14.02918,8.02746 0.1567,-0.13994 -0.11895,-1.00942 -0.61247,-1.93162 z m -98.29633,3.27335 c 4.6048,-0.91035 10.42102,-3.22139 10.42102,-4.14075 0,-0.26394 -0.60616,-1.14942 -1.34709,-1.96805 -1.25287,-1.38448 -1.08738,-1.52898 2.36643,-2.06684 5.23162,-0.81461 6.72531,-1.31028 6.72531,-2.23151 0,-0.44129 -0.99353,-0.80256 -2.20786,-0.80256 -1.21433,0 -2.89593,-0.36854 -3.7369,-0.81828 -1.89182,-1.01247 -7.39324,1.49185 -7.39324,3.36555 0,1.58953 -5.27661,5.19741 -7.60132,5.19741 -1.75564,0 -5.73669,3.10126 -5.73669,4.46897 0,0.39972 0.87127,0.54382 1.93616,0.32006 1.06489,-0.22376 4.02328,-0.81954 6.57418,-1.32386 z m -46.73853,50.60381 c 1.12895,-2.50355 1.54189,-5.1007 1.36821,-8.60522 -0.24482,-4.93956 0.30176,-5.95223 2.19223,-4.0617 1.38763,1.38759 2.37231,0.45099 3.67491,-3.49607 0.63263,-1.91685 1.41419,-3.48519 1.73679,-3.48519 0.32262,0 1.02165,-1.45215 1.5534,-3.22693 0.53176,-1.77484 1.72108,-4.77586 2.64298,-6.66903 0.92188,-1.89317 1.52827,-3.59132 1.34753,-3.77379 -0.81571,-0.82334 -4.68491,2.70577 -4.68491,4.27306 0,0.96272 -0.43318,3.47085 -0.96267,5.57358 -1.00905,4.00725 -2.84125,5.02886 -3.77018,2.10203 -0.83014,-2.61551 -1.92564,-2.08769 -4.01812,1.93618 -1.45387,2.79583 -1.84898,4.85935 -1.67752,8.76116 0.20013,4.55474 0.0788,4.98321 -1.12749,3.98211 -1.20554,-1.00055 -1.35177,-0.50502 -1.35177,4.57684 0,3.1343 0.32843,5.69875 0.72983,5.69875 0.40138,0 1.45746,-1.61364 2.34678,-3.58578 z m 176.25966,1.11908 c -0.35981,-2.25014 -1.02196,-3.55696 -1.80229,-3.55696 -0.9725,0 -1.11185,-0.81142 -0.65854,-3.83441 0.59259,-3.95169 -1.6401,-13.37589 -3.16889,-13.37589 -0.40852,0 -0.74273,0.38726 -0.74273,0.86048 0,0.47315 -0.48402,0.85818 -1.07564,0.85527 -0.68666,-0.003 -1.11557,-1.42763 -1.18604,-3.93839 -0.0903,-3.2155 -0.63983,-4.48366 -3.0118,-6.94953 -3.03673,-3.15703 -5.78723,-5.00898 -6.45198,-4.34421 -0.68298,0.68306 2.1482,17.60711 3.4778,20.78936 1.42179,3.40282 2.82219,3.96389 3.23985,1.29809 0.15123,-0.96536 0.66221,-1.76265 1.13549,-1.7718 1.11487,-0.0208 1.95757,3.04017 2.06552,7.50478 0.074,3.06108 0.62577,4.04535 4.02351,7.17724 2.16574,1.99638 4.11475,3.4527 4.33112,3.23628 0.21634,-0.21614 0.13744,-1.99396 -0.17541,-3.95031 z m 3.17922,50.23388 c -1.63609,-5.53575 -1.57732,-6.03218 0.71413,-6.03218 2.02262,0 2.08354,-0.18219 1.8666,-5.59117 -0.12332,-3.07515 -0.31722,-5.68421 -0.4309,-5.79782 -0.11368,-0.11361 -1.86366,2.95849 -3.88892,6.82698 -2.51235,4.79887 -3.74486,8.28143 -3.87923,10.96094 -0.10827,2.16002 -0.46712,5.28262 -0.7973,6.93914 -0.45189,2.2667 -0.39675,2.55454 0.22279,1.16369 1.24967,-2.80566 2.66481,-3.29828 2.66481,-0.92767 0,3.62201 1.24301,3.46559 2.91932,-0.36716 1.39924,-3.1995 1.48495,-4.20968 0.60873,-7.17447 z m -160.96022,14.48867 c -0.46657,-3.2899 -1.46342,-7.45372 -2.2152,-9.25295 -1.27689,-3.05603 -1.46721,-3.18051 -2.8917,-1.89136 -2.2722,2.05631 -2.46552,1.77595 -2.01417,-2.92129 0.38919,-4.05069 0.14367,-4.71282 -4.21378,-11.36426 -4.31437,-6.58569 -4.64654,-6.89452 -4.91523,-4.56963 -0.40166,3.47577 0.65764,9.90892 1.63167,9.90892 0.44427,0 0.82885,1.45215 0.85459,3.22693 0.0575,3.94705 2.53962,10.68785 4.13096,11.21746 0.85677,0.28542 1.01584,-0.1524 0.59992,-1.64994 l -0.56605,-2.03795 1.76652,2.03144 c 0.97158,1.11735 1.81492,2.95669 1.87408,4.08747 0.0589,1.13079 0.15594,2.40519 0.2151,2.832 0.15116,1.09053 5.78004,7.17633 6.22552,6.73082 0.20139,-0.20159 -0.0159,-3.05776 -0.48223,-6.34766 z m 148.8141,6.51164 c 3.53961,-2.17796 4.31551,-3.09358 4.31551,-5.09274 0,-1.34055 0.23505,-3.04986 0.52233,-3.79852 0.34278,-0.89317 0.0471,-1.36113 -0.86051,-1.36113 -0.76057,0 -1.38285,-0.38725 -1.38285,-0.86054 0,-2.34277 -1.64804,-0.24662 -4.22852,5.37829 -4.58568,9.99578 -4.69093,9.62641 1.63405,5.73464 z m -120.92011,25.93855 c 0.4717,-0.76321 -7.19534,-4.72724 -7.85923,-4.06337 -0.17015,0.17042 0.49864,1.33654 1.48621,2.59202 1.77924,2.26192 5.37181,3.09136 6.37302,1.47135 z m 81.93811,3.31609 c 2.04255,-0.98878 3.71374,-2.11264 3.71374,-2.49739 0,-1.15926 -5.22176,-2.60705 -7.41639,-2.05624 -2.36762,0.59438 -2.5776,1.39964 -0.75852,2.90937 0.70993,0.58884 1.29078,1.411 1.29078,1.82638 0,1.06851 -3.82203,0.93723 -6.35851,-0.21822 -1.22008,-0.55559 -2.80655,-0.67751 -3.69768,-0.28333 -1.26724,0.56044 -0.99433,0.80346 1.45102,1.29067 5.38617,1.07301 7.99764,0.85757 11.77556,-0.97124 z m -31.38049,0.76819 c 4.37683,-2.33285 5.50066,-3.44383 7.39897,-7.3144 2.28658,-4.66225 4.46132,-6.00309 4.46132,-2.75066 0,1.10197 0.42188,1.64751 1.07564,1.39092 7.05886,-2.77062 9.88356,-4.49967 10.82485,-6.62615 1.92399,-4.34664 10.62368,-12.20326 11.99465,-10.8323 0.33412,0.33391 -0.44745,2.58586 -1.73684,5.00385 -1.28938,2.41807 -2.2297,4.51103 -2.08959,4.65117 0.25361,0.25355 19.74637,-5.57385 19.92377,-5.95632 0.0513,-0.11015 1.1474,-1.84647 2.43596,-3.85789 2.21535,-3.45825 2.16599,-4.88165 -0.091,-2.62458 -0.80315,0.80311 -1.03262,0.59923 -1.03262,-0.91714 0,-2.78052 1.39469,-5.15889 5.61843,-9.58118 3.46697,-3.62997 8.84858,-14.21689 7.77338,-15.29212 -0.26221,-0.26186 -1.49654,-0.0139 -2.74291,0.55559 -1.24638,0.56806 -2.3982,0.90045 -2.55963,0.73903 -0.69896,-0.69892 4.38657,-6.65566 7.96523,-9.32977 4.48952,-3.35468 5.50026,-5.07244 7.56754,-12.86075 2.41593,-9.10193 2.15935,-9.58402 -7.11962,-13.37908 -3.37559,-1.3806 -7.59085,-5.23884 -6.69849,-6.13118 0.1993,-0.19951 1.54079,0.24732 2.98112,0.99189 4.00752,2.07232 4.19582,1.64939 0.83369,-1.87273 -4.84643,-5.07707 -8.23376,-10.28758 -9.83013,-15.12115 -0.80934,-2.45063 -2.33587,-5.61729 -3.39229,-7.03716 -3.07658,-4.135 -5.63776,-9.74598 -4.71029,-10.31917 0.45999,-0.28403 1.65049,-0.0811 2.64557,0.45168 1.77078,0.94769 1.79611,0.86165 1.19214,-4.04764 -0.64489,-5.24182 -1.35317,-6.27167 -4.32829,-6.29356 -2.79872,-0.0208 -3.20045,-1.09463 -1.0427,-2.78765 1.96308,-1.54035 1.96461,-1.55767 0.25389,-2.89372 -2.12045,-1.65603 -13.02216,-8.10006 -13.70327,-8.10006 -0.87873,0 -0.51797,2.08735 0.79626,4.60725 1.25596,2.40816 1.08201,3.9979 -0.43748,3.9979 -1.58614,0 -5.67004,-4.6317 -8.16361,-9.25863 -2.14008,-3.97102 -3.39699,-5.20932 -7.28374,-7.17571 -2.58355,-1.3071 -4.98423,-2.19923 -5.33485,-1.98253 -0.35061,0.21683 -0.40229,2.37996 -0.11479,4.80731 0.66186,5.5882 -0.22293,5.12038 -5.05061,-2.6705 -3.46578,-5.59305 -3.88084,-5.94871 -8.0247,-6.87603 -3.46487,-0.77541 -5.07217,-0.73481 -7.76084,0.19605 -2.92327,1.01212 -3.80952,1.9871 -6.42603,7.06979 -2.7603,5.36201 -5.33047,8.2932 -6.36123,7.25469 -0.21829,-0.21961 -0.0952,-2.0455 0.27343,-4.05699 0.5132,-2.8002 0.40305,-3.65721 -0.47024,-3.65721 -0.62729,0 -4.50853,2.54021 -8.62499,5.64493 -4.11647,3.10473 -8.94622,6.39069 -10.73279,7.30215 -1.78657,0.91139 -3.50685,2.0755 -3.82286,2.58675 -0.74718,1.209 -7.33301,5.97912 -8.25498,5.97912 -0.39044,0 -0.46719,-1.21371 -0.17049,-2.69704 l 0.53938,-2.69705 -4.9984,0.62418 c -6.60899,0.82576 -6.79912,0.92427 -8.44567,4.37711 -1.68786,3.53951 -2.77954,3.77463 -3.53577,0.76155 -0.30544,-1.21683 -1.00507,-2.06247 -1.55481,-1.87924 -0.81173,0.27087 -5.82113,11.0361 -5.82113,12.50994 0,0.22653 1.35531,0.1919 3.0118,-0.0769 2.08664,-0.33876 3.01181,-0.16072 3.01181,0.57914 0,1.11458 -3.76664,4.9052 -8.15771,8.20972 -2.62414,1.97478 -8.81575,13.84815 -7.22138,13.84815 0.47489,0 1.5741,-0.38033 2.44266,-0.84517 3.06075,-1.63802 -0.10308,5.28227 -4.50447,9.85274 -2.69453,2.79804 -4.53205,5.67382 -5.31938,8.32507 -1.1731,3.9503 -1.14082,4.14829 1.30585,8.00626 1.38272,2.18031 3.57407,4.35827 4.88231,4.85255 2.5856,0.97679 7.10644,4.92834 7.10644,6.21161 0,0.4399 -0.77447,0.59715 -1.72104,0.34984 -0.94656,-0.24732 -1.72103,-0.26533 -1.72103,-0.0416 0,0.22515 1.81153,3.38384 4.02562,7.01874 2.21409,3.63482 4.68144,8.35132 5.483,10.48106 1.14422,3.04024 2.50361,4.57449 6.32625,7.1399 4.86727,3.26656 5.51956,4.89572 1.97007,4.92052 -4.62666,0.0346 -5.32931,3.24057 -2.73414,12.48417 1.12355,4.00185 1.56833,4.49634 5.99818,6.66896 5.45039,2.67314 7.2269,3.00768 5.60704,1.05583 -2.84988,-3.43385 6.15189,-0.0554 12.47749,4.67971 2.36642,1.77235 5.85151,3.72149 7.74465,4.33147 1.89313,0.60962 3.91309,1.48243 4.48878,1.93882 2.1259,1.6852 2.94748,0.19327 1.15118,-2.09012 -1.32608,-1.68583 -1.52381,-2.45513 -0.75344,-2.93119 0.66401,-0.41012 2.78713,1.27876 5.8278,4.63641 3.30189,3.64612 5.94818,5.69294 8.54453,6.60897 5.10038,1.79957 5.22694,1.75385 4.66893,-1.68472 -0.39626,-2.44196 -0.2149,-3.01183 0.95852,-3.01183 1.29094,0 2.33786,1.76238 4.21722,7.09924 0.69577,1.97581 0.78226,1.96002 6.79487,-1.24468 z m -27.72348,19.59997 c -2.60307,-1.10516 -5.89454,-2.63532 -7.31439,-3.4004 -1.41986,-0.76515 -3.21052,-1.39348 -3.97927,-1.39639 -0.76874,-0.003 -3.03666,-0.5833 -5.03981,-1.29033 l -3.6421,-1.28499 0.58912,2.36063 c 0.32401,1.29837 1.23662,3.09746 2.028,3.99791 1.38825,1.57969 1.33293,1.61751 -1.57295,1.07405 -3.41903,-0.63942 -6.38884,-3.77837 -7.85708,-8.30464 -0.8378,-2.5828 -7.58897,-10.32623 -9.00296,-10.32623 -0.26401,0 -0.354,1.22597 -0.2,2.72434 0.154,1.49836 -0.14645,2.86669 -0.66768,3.04085 -1.24985,0.41773 -3.78166,-6.31233 -3.79837,-10.09651 -0.0215,-4.9244 -0.74659,-5.33423 -5.94244,-3.36001 -5.2187,1.98294 -6.30629,1.6552 -3.75754,-1.13238 1.7815,-1.94838 4.9152,-7.54337 4.39838,-7.85289 -0.15324,-0.0914 -1.84833,-1.21752 -3.7669,-2.50161 -2.36584,-1.58344 -4.61292,-2.33473 -6.98321,-2.33473 -2.2327,0 -4.31376,-0.64427 -5.76224,-1.78344 -2.98944,-2.35149 -2.8634,-3.37961 0.41434,-3.37961 l 2.68169,0 -2.91376,-3.22693 c -1.60258,-1.77484 -3.51804,-4.09052 -4.2566,-5.14601 -0.73857,-1.05541 -2.66709,-2.47584 -4.28563,-3.15641 -3.1342,-1.31797 -6.80036,-4.82041 -8.50074,-8.12112 -1.43253,-2.78079 -0.8789,-2.95814 2.90468,-0.93023 1.79745,0.96335 3.4484,1.57124 3.66878,1.35088 0.88481,-0.88479 -1.43301,-6.67111 -3.90875,-9.75804 -2.9499,-3.67805 -5.08274,-9.0438 -5.46007,-13.73626 -0.31992,-3.97823 1.07378,-4.51331 3.04844,-1.17048 2.19711,3.71941 3.15356,3.2049 3.15356,-1.69643 0,-3.82769 -0.22487,-4.34261 -2.10238,-4.81382 -1.15631,-0.29027 -2.51162,-0.27503 -3.01181,0.0346 -0.52594,0.32491 -0.90943,-0.18219 -0.90943,-1.20193 0,-1.05694 1.17498,-2.53411 2.93181,-3.68574 l 2.93181,-1.92185 -2.07129,-5.50291 c -1.13921,-3.02659 -2.07129,-6.20835 -2.07129,-7.0707 0,-2.50993 -1.49024,-2.75204 -4.27357,-0.69421 -1.42416,1.05292 -2.76638,1.73744 -2.98268,1.52116 -0.86678,-0.86678 1.21874,-7.1194 3.50568,-10.51044 1.33635,-1.98156 2.85051,-5.63579 3.36475,-8.12057 0.85962,-4.15335 0.80719,-4.51767 -0.65022,-4.51767 -1.51093,0 -1.51654,-0.11084 -0.11964,-2.36646 0.80609,-1.30148 2.4903,-3.52807 3.7427,-4.94795 2.65792,-3.01328 8.59966,-11.39065 8.59966,-12.12484 0,-0.2771 -1.54893,-0.24246 -3.44207,0.0776 -3.89614,0.65812 -4.34706,-0.16626 -1.5059,-2.75426 3.07084,-2.79701 5.41179,-3.6996 9.59505,-3.6996 2.14483,0 5.26816,-0.65258 6.94071,-1.45015 2.96633,-1.41454 3.04099,-1.57311 3.04099,-6.45635 l 0,-5.00621 3.11194,3.44452 c 1.71157,1.89456 3.44891,3.4446 3.86074,3.4446 0.41185,0 2.09886,-1.45216 3.74891,-3.227 2.20529,-2.372 3.01129,-4.02485 3.04229,-6.23869 0.0236,-1.65652 0.89741,-4.75439 1.94268,-6.88414 l 1.90049,-3.87237 0.2769,4.51775 c 0.15226,2.48471 0.47329,4.51767 0.71339,4.51767 1.34889,0 8.0787,-6.6389 8.0787,-7.96961 0,-3.5765 3.50539,-7.91988 10.07623,-12.48501 2.55096,-1.77228 5.41307,-2.54422 5.41307,-1.45991 0,0.25216 -0.9746,2.38211 -2.16579,4.73284 -1.19118,2.35067 -2.03463,4.27397 -1.87431,4.27397 2.02431,0 9.13528,-3.3571 10.33107,-4.87729 1.65184,-2.09995 11.72155,-8.37564 12.38104,-7.71613 0.21247,0.21267 -0.22313,1.56473 -0.96797,3.00504 -2.09446,4.05027 -1.78298,4.42526 3.6755,4.42526 3.93689,0 5.36815,-0.37409 6.58726,-1.72102 2.12791,-2.35128 2.77615,-2.17137 3.46428,0.96169 0.55531,2.52842 0.76957,2.65492 3.72556,2.20033 7.58499,-1.16667 14.30649,-2.42832 14.6231,-2.74498 0.18898,-0.18912 -0.46581,-1.7154 -1.45511,-3.39208 -0.98927,-1.67675 -1.4727,-3.04855 -1.07427,-3.04855 1.2439,0 10.38992,4.2448 12.82086,5.9503 2.29877,1.61281 9.63063,3.04751 9.63063,1.88458 0,-0.33391 -0.45826,-1.06477 -1.01827,-1.62486 -0.56003,-0.55975 -0.73839,-1.29816 -0.39626,-1.64025 0.84933,-0.84932 6.50403,2.28991 7.50972,4.16902 0.65057,1.21558 11.21629,8.84706 13.91186,10.04837 0.35497,0.15794 0.64537,-0.49602 0.64537,-1.45438 0,-5.22429 3.64289,-0.87758 5.13582,6.12806 0.42722,2.00498 1.3557,5.38799 2.06318,7.51773 0.70749,2.12981 1.51349,4.93402 1.79113,6.23169 0.37354,1.74589 1.61812,2.92351 4.78691,4.52925 2.35517,1.19341 4.38155,2.08727 4.5031,1.98627 0.48368,-0.4018 8.47016,2.16611 8.90009,2.86178 0.25292,0.40942 -0.58885,1.14277 -1.87058,1.63013 -2.00369,0.76175 -2.1484,1.03304 -1.03207,1.93452 0.71411,0.57637 2.48658,2.82104 3.93882,4.98743 1.45224,2.16632 4.02356,4.99381 5.71404,6.28317 2.66358,2.03165 5.65332,6.19595 5.65332,7.87443 0,0.29789 -1.16169,0.28611 -2.58154,-0.0277 -2.86118,-0.62833 -2.91456,-0.55767 -1.79695,2.38191 0.43152,1.13501 1.02477,3.57476 1.31828,5.42165 0.31188,1.96237 1.55225,4.43607 2.98446,5.9521 2.57158,2.72198 4.37834,5.72217 4.37834,7.27041 0,1.35351 -2.20748,1.11389 -3.44207,-0.37339 -1.87479,-2.25901 -2.33957,-1.43858 -2.80311,4.94794 -0.53543,7.37731 0.13994,9.19199 3.2029,8.60647 2.49076,-0.47593 2.73648,0.32975 0.90002,2.95156 -1.1353,1.62091 -1.1353,2.24502 0,5.4628 0.70496,1.99805 1.30896,5.03628 1.34223,6.75154 0.0332,1.71534 0.34804,3.85152 0.69958,4.74705 0.58635,1.49393 0.79766,1.42292 2.56031,-0.86047 l 1.92122,-2.48887 -0.53827,3.87237 c -0.29609,2.12974 -1.31686,5.42124 -2.26842,7.31441 -1.79815,3.57732 -6.73747,16.68463 -6.73747,17.87887 0,0.37548 0.74901,0.28196 1.66446,-0.20782 2.70995,-1.45036 3.64323,-1.1055 2.43028,0.89788 -2.8369,4.68574 -23.26366,17.79388 -32.06153,20.57433 -4.98423,1.57525 -7.24296,4.64244 -7.29519,9.90635 -0.054,5.44832 -0.77952,8.17495 -2.17509,8.17495 -0.60207,0 -1.35297,-1.37707 -1.6687,-3.06005 l -0.57409,-3.06004 -5.16411,4.78106 c -2.84026,2.62956 -5.4985,4.78106 -5.90721,4.78106 -0.40872,0 -0.98756,1.11305 -1.28636,2.47349 -0.76259,3.47203 -3.73101,5.94738 -7.93912,6.62026 -3.38099,0.54035 -3.5646,0.46415 -3.10527,-1.29227 0.43997,-1.68236 0.2433,-1.80879 -1.99022,-1.27917 -1.36313,0.32351 -3.29554,1.32794 -4.29426,2.23275 -2.48481,2.25111 -10.66166,5.3203 -10.66166,4.00178 0,-0.55213 0.64302,-1.71485 1.42893,-2.58329 0.78589,-0.86844 1.26994,-1.72136 1.07564,-1.89538 -0.19432,-0.17389 -3.34684,-0.50017 -7.00564,-0.72497 -7.30742,-0.44891 -6.87363,-0.75296 -7.94027,5.56969 -0.32809,1.94499 -1.02619,3.22693 -1.75718,3.22693 -0.73243,0 -1.42521,-1.27813 -1.74909,-3.22693 -0.91742,-5.52016 -0.67737,-5.36214 -6.15856,-4.05263 -2.75005,0.65674 -6.19407,1.20845 -7.65336,1.22528 -3.44999,0.0416 -4.02265,0.71354 -2.47946,2.91672 2.57426,3.67528 1.80766,3.84515 -4.76322,1.05555 z m -17.28483,-19.18078 c 0.91311,-2.00407 0.849,-2.48741 -0.4566,-3.4421 -2.31879,-1.69552 -3.52696,-1.34152 -4.17038,1.22209 -0.42992,1.71284 -0.18233,2.62742 0.9317,3.44203 2.11718,1.54818 2.48916,1.42514 3.69529,-1.22202 z m 23.30844,6.47049 c 0,-0.41288 -0.67765,-0.98053 -1.5059,-1.2611 -0.82825,-0.28056 -3.61899,-1.44536 -6.20164,-2.58848 -4.27691,-1.89289 -5.08281,-1.98884 -9.03543,-1.07558 -2.38683,0.55144 -4.92053,1.20083 -5.63046,1.44288 -2.08853,0.71201 6.1529,2.91761 9.19726,2.46136 1.76436,-0.26463 3.11058,0.0346 3.7723,0.82868 1.12358,1.35379 9.40387,1.52316 9.40387,0.19189 z"
       inkscape:connector-curvature="0" />
    <g
       id="g4158"
       transform="translate(200.39935,0.378015)">
      <path
         sodipodi:nodetypes="sccsss"
         inkscape:connector-curvature="0"
         id="path11294"
         d="m -200.31041,432.06228 c 1.9372,-2.36708 0.11641,-23.52168 -2.6192,-23.9402 -10.34973,0 -13.57092,-0.36165 -14.46884,0.20585 -0.35007,0.60962 3.3313,22.80223 1.7856,24.60234 -0.36911,0.42986 3.8453,-0.51561 6.54635,-0.33315 2.97258,0.2008 6.88659,1.74951 8.75609,-0.53484 z"
         style="opacity:1;fill:#e7e7e7;fill-opacity:1;stroke:#633a15;stroke-width:1;stroke-linecap:round;stroke-linejoin:round;stroke-miterlimit:4;stroke-dasharray:none;stroke-opacity:1" />
      <path
         sodipodi:nodetypes="ccssscc"
         inkscape:connector-curvature="0"
         id="path4150"
         d="m -253.28828,410.20178 c -5.23758,-0.83572 -8.28078,-1.10434 -12.87247,-2.28006 -1.82317,-0.48664 -2.12943,-0.25204 -2.12943,1.63127 0,1.8003 -2.96914,15.31853 -4.84459,22.05695 -0.41808,1.50218 0.56546,2.85929 7.8772,2.44417 l 7.79705,-0.44267 c -0.25237,-6.73824 5.26363,-18.02798 4.17224,-23.40966 z"
         style="opacity:1;fill:#e7e7e7;fill-opacity:1;stroke:#633a15;stroke-width:1;stroke-linecap:round;stroke-linejoin:round;stroke-miterlimit:4;stroke-dasharray:none;stroke-opacity:1" />
      <path
         sodipodi:nodetypes="ccccccccc"
         inkscape:connector-curvature="0"
         id="path4156"
         d="m -259.90373,482.32063 c 9.85843,-9.3676 26.30084,-23.61613 38.92857,-16.60714 -0.71995,-14.33389 -4.19356,-36.59035 -6.60715,-56.96428 13.81682,-0.11905 24.8784,-0.2381 36.42858,-0.35715 0.2951,-7.79856 -1.30701,-16.30858 -4.82143,-25.53571 -21.2505,9.80076 -48.95976,8.0631 -80.17857,1.25 0.098,8.42084 -2.42442,15.3859 -6.60715,21.42857 12.1109,1.92873 23.29872,4.54977 37.14286,5.17857 -4.75415,24.24945 -8.25813,51.17798 -14.28571,71.60714 z"
         style="fill:#633a15;fill-opacity:1;fill-rule:evenodd;stroke:none;stroke-width:1px;stroke-linecap:butt;stroke-linejoin:miter;stroke-opacity:1" />
      <path
         sodipodi:nodetypes="csccc"
         inkscape:connector-curvature="0"
         id="path4154"
         d="m -211.98195,387.79141 c -7.19512,-3.92597 -18.48324,2.41312 -20.50512,9.30089 -2.03744,6.94077 -2.32206,12.82751 -1.57574,17.80146 0.56488,3.50136 -0.49039,-1.02013 5.97792,6.92769 3.10406,-10.85869 5.16849,-25.25886 16.10294,-34.03004 z"
         style="opacity:1;fill:#e7e7e7;fill-opacity:1;stroke:#633a15;stroke-width:1;stroke-linecap:round;stroke-linejoin:round;stroke-miterlimit:4;stroke-dasharray:none;stroke-opacity:1" />
      <path
         sodipodi:nodetypes="scsscsss"
         inkscape:connector-curvature="0"
         id="path4152"
         d="m -231.58772,429.45356 3.50283,-7.63211 c -7.84409,-8.46852 -8.57874,-11.23099 -9.96083,-19.48931 -2.33857,-13.97349 -5.09663,-17.5518 -14.79018,-17.02704 -4.49282,0.24322 -5.36521,1.14987 -6.26894,2.39243 7.06629,5.40561 5.15635,14.2972 6.43023,20.6199 2.49397,12.3784 6.95995,15.53314 16.44412,22.22491 2.45492,1.73213 3.67279,1.02464 4.64277,-1.08878 z"
         style="opacity:1;fill:#e7e7e7;fill-opacity:1;stroke:#633a15;stroke-width:1;stroke-linecap:round;stroke-linejoin:round;stroke-miterlimit:4;stroke-dasharray:none;stroke-opacity:1" />
    </g>
    <path
       style="fill:#7d4d2e;fill-opacity:1"
       d="m -56.08552,535.00701 c -2.60306,-1.10511 -5.89454,-2.63529 -7.31439,-3.40039 -1.41985,-0.7651 -3.21052,-1.39349 -3.97926,-1.3964 -0.76875,-0.003 -3.03666,-0.58355 -5.03982,-1.29031 l -3.64209,-1.285 0.58914,2.36064 c 0.32403,1.29837 1.23663,3.09743 2.028,3.99794 1.38825,1.57969 1.33293,1.61747 -1.57295,1.07403 -3.41903,-0.63939 -6.38884,-3.77839 -7.85708,-8.30467 -0.83779,-2.58275 -7.58897,-10.3262 -9.00296,-10.3262 -0.264,0 -0.35401,1.22594 -0.20002,2.7243 0.154,1.49837 -0.14645,2.86675 -0.66766,3.04085 -1.24985,0.41751 -3.78166,-6.3123 -3.79837,-10.0965 -0.0218,-4.9244 -0.74659,-5.33424 -5.94244,-3.35997 -5.2187,1.98295 -6.30629,1.65519 -3.75753,-1.13237 1.78149,-1.94842 4.91519,-7.54336 4.39837,-7.85292 -0.15322,-0.0918 -1.84833,-1.21749 -3.7669,-2.50159 -2.36584,-1.58344 -4.61292,-2.33472 -6.98321,-2.33472 -2.2327,0 -4.31376,-0.64411 -5.76224,-1.78349 -2.98944,-2.35149 -2.86339,-3.37961 0.41434,-3.37961 l 2.68169,0 -2.91376,-3.22693 c -1.60258,-1.77482 -3.51804,-4.0905 -4.2566,-5.14596 -0.73856,-1.05546 -2.66709,-2.47586 -4.28563,-3.15645 -3.1342,-1.31792 -6.80035,-4.82036 -8.50074,-8.12111 -1.43253,-2.78081 -0.87889,-2.95811 2.90468,-0.93024 1.79745,0.96337 3.4484,1.57128 3.66879,1.35089 0.8848,-0.8848 -1.43302,-6.67112 -3.90876,-9.75801 -2.9499,-3.6781 -5.08274,-9.04385 -5.46007,-13.73628 -0.31989,-3.97822 1.07378,-4.51334 3.04844,-1.1705 2.19712,3.71942 3.15356,3.20492 3.15356,-1.6964 0,-3.82768 -0.22489,-4.34263 -2.10238,-4.81385 -1.15631,-0.29021 -2.51162,-0.27473 -3.0118,0.0344 -0.52592,0.325 -0.90943,-0.18182 -0.90943,-1.20188 0,-1.05699 1.17496,-2.53412 2.9318,-3.68576 l 2.93181,-1.92184 -2.07129,-5.50291 c -1.1392,-3.0266 -2.07129,-6.20841 -2.07129,-7.0707 0,-2.50996 -1.49023,-2.75205 -4.27357,-0.69424 -1.42416,1.05294 -2.76638,1.73744 -2.98268,1.52114 -0.86678,-0.86678 1.21874,-7.1194 3.50568,-10.51044 1.33636,-1.98155 2.8505,-5.63577 3.36476,-8.12052 0.85961,-4.15338 0.80718,-4.51771 -0.6502,-4.51771 -1.51094,0 -1.51654,-0.11088 -0.11963,-2.36642 0.80608,-1.30153 2.49029,-3.52812 3.7427,-4.94797 2.65792,-3.01328 8.59966,-11.39068 8.59966,-12.12486 0,-0.27715 -1.54893,-0.24222 -3.44207,0.0776 -3.89614,0.65824 -4.34706,-0.16649 -1.5059,-2.75428 3.07084,-2.79699 5.41179,-3.6996 9.59504,-3.6996 2.14484,0 5.26816,-0.65257 6.94071,-1.45015 2.96633,-1.41455 3.041,-1.57307 3.041,-6.45636 l 0,-5.0062 3.11194,3.44455 c 1.71157,1.8945 3.44891,3.44455 3.86074,3.44455 0.41184,0 2.09885,-1.45213 3.74891,-3.22694 2.20529,-2.37202 3.01128,-4.02486 3.04229,-6.23875 0.0232,-1.65649 0.89741,-4.75435 1.94267,-6.88413 l 1.9005,-3.87233 0.27687,4.51771 c 0.15228,2.48475 0.47331,4.51772 0.71339,4.51772 1.3489,0 8.07871,-6.63894 8.07871,-7.96961 0,-3.57651 3.50539,-7.91988 10.07623,-12.48502 2.55095,-1.7723 5.41307,-2.54423 5.41307,-1.45994 0,0.25237 -0.97461,2.38215 -2.16579,4.73284 -1.19118,2.35069 -2.03463,4.27398 -1.87432,4.27398 2.02431,0 9.13529,-3.35707 10.33108,-4.87728 1.65184,-2.09997 11.72155,-8.37564 12.38104,-7.71614 0.21245,0.21243 -0.22315,1.5647 -0.96797,3.00503 -2.09447,4.05026 -1.78298,4.42529 3.6755,4.42529 3.93688,0 5.36815,-0.37395 6.58725,-1.72104 2.12791,-2.35131 2.77615,-2.17136 3.46428,0.96167 0.55534,2.52844 0.76957,2.65497 3.72557,2.20032 7.58499,-1.16661 14.30648,-2.42831 14.62309,-2.74491 0.18897,-0.18898 -0.46582,-1.71544 -1.45511,-3.39214 -0.98927,-1.67671 -1.47269,-3.04855 -1.07426,-3.04855 1.2439,0 10.38992,4.24479 12.82086,5.95033 2.29877,1.6128 9.63063,3.04752 9.63063,1.88454 0,-0.33359 -0.45823,-1.06476 -1.01828,-1.62481 -0.56006,-0.56005 -0.73838,-1.29817 -0.39629,-1.64027 0.84933,-0.84932 6.50403,2.2899 7.50972,4.16903 0.65055,1.21557 11.21629,8.84706 13.91186,10.04835 0.35496,0.15818 0.64539,-0.49627 0.64539,-1.45435 0,-5.22431 3.64288,-0.87762 5.13581,6.12804 0.42726,2.00498 1.3557,5.38796 2.06318,7.51774 0.70749,2.12978 1.5135,4.93402 1.79113,6.23165 0.37355,1.74592 1.61813,2.92351 4.78691,4.52925 2.35517,1.19346 4.38157,2.08729 4.5031,1.98632 0.48368,-0.40187 8.47017,2.16611 8.9001,2.86173 0.25292,0.40925 -0.58884,1.1428 -1.87058,1.63012 -2.00368,0.7618 -2.1484,1.03305 -1.03207,1.93455 0.71411,0.57668 2.48658,2.82102 3.93882,4.98741 1.45224,2.16638 4.02356,4.99383 5.71404,6.28322 2.66358,2.03162 5.65332,6.19596 5.65332,7.87438 0,0.29775 -1.16169,0.28621 -2.58155,-0.0256 -2.86117,-0.62842 -2.91456,-0.55766 -1.79693,2.38191 0.43154,1.13502 1.02476,3.57477 1.31827,5.42165 0.31188,1.96238 1.55225,4.43612 2.98446,5.95212 2.57158,2.72199 4.37834,5.72219 4.37834,7.27041 0,1.35355 -2.20749,1.11389 -3.44207,-0.37369 -1.87479,-2.25898 -2.33957,-1.43858 -2.80311,4.94797 -0.53543,7.37731 0.13991,9.19201 3.2029,8.60648 2.49076,-0.47615 2.73649,0.32968 0.90002,2.95159 -1.13529,1.62086 -1.13529,2.24496 0,5.46275 0.70496,1.99806 1.30896,5.03627 1.34223,6.75158 0.0333,1.71531 0.34807,3.85149 0.69958,4.74705 0.58635,1.49391 0.79766,1.42288 2.56031,-0.86052 l 1.92122,-2.48882 -0.5383,3.87233 c -0.29606,2.12978 -1.31685,5.42125 -2.26841,7.31439 -1.79815,3.57737 -6.73747,16.68465 -6.73747,17.87892 0,0.3755 0.74901,0.28188 1.66446,-0.20806 2.70995,-1.45031 3.64322,-1.1055 2.43028,0.8979 -2.8369,4.68572 -23.26366,17.79386 -32.06154,20.57435 -4.98423,1.57522 -7.24296,4.6424 -7.29519,9.90634 -0.054,5.44834 -0.77952,8.17491 -2.17508,8.17491 -0.60206,0 -1.35298,-1.37701 -1.66871,-3.06002 l -0.57407,-3.06003 -5.1641,4.78106 c -2.84027,2.62958 -5.49851,4.78105 -5.90721,4.78105 -0.4087,0 -0.98757,1.11307 -1.28637,2.47349 -0.76259,3.47205 -3.73101,5.94735 -7.93912,6.62025 -3.38098,0.54064 -3.5646,0.46423 -3.10527,-1.29226 0.43995,-1.68237 0.24326,-1.80879 -1.99022,-1.27917 -1.36313,0.32323 -3.29554,1.32796 -4.29425,2.23275 -2.48482,2.25112 -10.66166,5.32027 -10.66166,4.00181 0,-0.55241 0.64301,-1.7149 1.42892,-2.58331 0.7859,-0.86842 1.26994,-1.72135 1.07564,-1.89542 -0.1943,-0.17406 -3.34684,-0.50029 -7.00564,-0.72494 -7.30742,-0.44867 -6.87363,-0.75294 -7.94026,5.56968 -0.32813,1.94499 -1.0262,3.22694 -1.75719,3.22694 -0.73243,0 -1.4252,-1.27812 -1.74908,-3.22694 -0.91742,-5.52012 -0.67738,-5.36217 -6.15856,-4.05261 -2.75006,0.65705 -6.19408,1.20843 -7.65337,1.22528 -3.44998,0.0399 -4.02264,0.71351 -2.47945,2.91672 2.57425,3.67525 1.80766,3.84513 -4.76323,1.05552 z m -1.1574,-3.7942 c -0.78329,-0.86552 -1.42415,-2.02722 -1.42415,-2.58155 0,-1.28184 2.28819,-1.31822 3.0727,-0.0489 0.39657,0.64168 2.33548,0.76866 5.85926,0.38374 8.23433,-0.89948 11.81628,-2.05441 11.53366,-3.71879 -0.41408,-2.43859 2.4959,-2.26864 3.11089,0.18168 0.81699,3.25514 2.50397,2.7782 1.78305,-0.5041 -0.56483,-2.57169 -0.48758,-2.67207 1.64458,-2.13693 1.7223,0.43227 3.57602,-0.26189 8.05383,-3.01593 3.19911,-1.96759 6.88206,-4.20064 8.18433,-4.96234 1.30228,-0.76168 2.20937,-1.80724 2.01578,-2.32343 -0.80893,-2.15697 0.85255,-3.01707 3.33765,-1.72779 2.21311,1.14818 2.54487,1.11488 3.80552,-0.38193 1.30137,-1.54515 12.14894,-5.44011 29.77809,-10.69221 4.25956,-1.26901 8.90635,-2.8275 10.3262,-3.46331 1.41985,-0.63582 4.22729,-1.81072 6.23874,-2.61088 2.48242,-0.98753 3.65721,-1.97242 3.65721,-3.06607 0,-1.05948 0.81031,-1.78707 2.36642,-2.1248 3.30377,-0.71704 5.33704,-1.79757 8.82029,-4.68734 2.42912,-2.01525 2.63722,-2.40353 1.07565,-2.00696 -1.41221,0.35864 -1.93617,0.11524 -1.93617,-0.89944 0,-0.76512 0.53632,-1.39113 1.19181,-1.39113 1.18748,0 3.17527,-2.52795 4.21871,-5.36511 0.36028,-0.9796 -0.0167,-1.79553 -1.09659,-2.37347 -1.42534,-0.76282 -1.87341,-0.39026 -3.34762,2.78355 -2.82374,6.0792 -3.27752,6.51418 -4.72734,4.53145 -1.1873,-1.62374 -1.27603,-1.55363 -1.8403,1.45425 -0.32608,1.73813 -0.38979,3.48883 -0.14158,3.89044 0.7239,1.17128 -13.56253,7.66484 -25.11766,11.41662 -5.85114,1.89978 -11.13132,3.45415 -11.73375,3.45415 -0.60241,0 -2.20445,0.57846 -3.56008,1.28547 -1.35563,0.70701 -3.14245,1.28786 -3.97069,1.29078 -0.82825,0.003 -1.50591,0.61455 -1.50591,1.35917 0,0.84119 -0.57026,1.22916 -1.5059,1.02454 -1.5938,-0.34855 -1.62656,-0.54781 -0.72123,-4.38668 0.81067,-3.43748 -0.70665,-2.20978 -3.03786,2.45802 -1.37672,2.75662 -2.44609,3.85283 -3.75845,3.85283 -1.00885,0 -3.96478,1.28294 -6.56876,2.85096 -2.60396,1.56804 -5.19501,2.69747 -5.75786,2.50985 -0.56475,-0.18825 -1.02337,0.43475 -1.02337,1.39015 0,1.92357 -2.76626,5.1724 -3.22706,3.79001 -0.16123,-0.4837 -2.87686,0.38831 -6.06203,1.94658 -9.01806,4.41188 -13.73873,5.69702 -22.55003,6.13893 -13.5733,0.68075 -14.36916,1.19365 -8.47605,5.46259 4.07653,2.95303 5.07512,3.28852 3.01607,1.01329 z m -21.5172,-3.81172 c -0.94939,-3.78268 0.48408,-4.25065 5.34626,-1.74534 3.40184,1.75286 4.865,2.10874 5.92383,1.44085 2.77327,-1.74933 2.20073,-2.9153 -1.43153,-2.9153 -1.93258,0 -3.51378,-0.37936 -3.51378,-0.84303 0,-0.98985 -6.23621,-4.32007 -8.08983,-4.32007 -1.63109,0 -2.8681,-1.94071 -1.52284,-2.38913 1.96888,-0.6563 0.0119,-1.91345 -2.9787,-1.91345 -2.43825,0 -2.95709,-0.29174 -2.67812,-1.50591 0.19031,-0.82824 -0.48915,-2.6676 -1.50988,-4.08745 -4.31808,-6.00646 -10.74909,-20.9803 -10.76246,-25.0591 -0.003,-0.8893 -0.55052,-2.66199 -1.21689,-3.93929 -1.32971,-2.54878 -0.79444,-3.43454 2.72809,-4.51443 2.5563,-0.78368 2.40552,-1.42559 -0.81959,-3.4894 -1.4792,-0.94657 -2.97572,-2.30188 -3.3256,-3.01181 -0.34989,-0.70992 -1.89648,-4.0014 -3.43688,-7.31439 -4.05359,-8.71818 -8.93641,-15.29259 -11.56605,-15.57296 -2.69538,-0.28737 -2.69491,0.30772 0.003,3.44444 1.18265,1.37515 2.15025,2.80034 2.15025,3.16709 0,0.36676 0.87128,0.79057 1.93617,0.9418 1.66473,0.23643 2.00697,0.93848 2.44129,5.00782 0.27782,2.60307 0.56824,4.21654 0.64539,3.58549 0.23693,-1.93816 2.28162,-0.56234 2.44991,1.64848 0.0871,1.14424 0.76555,3.734 1.50766,5.75504 0.74212,2.02103 1.91547,7.44229 2.60745,12.04723 1.43711,9.56365 2.72286,13.9628 4.49913,15.39361 1.0647,0.85763 0.98655,1.4906 -0.55776,4.51771 -1.68061,3.29425 -1.06787,5.20433 0.67211,2.09517 0.69441,-1.24083 1.18908,-1.03366 3.82447,1.60174 2.12759,2.1276 2.80208,3.38193 2.27018,4.22184 -1.14557,1.80898 -0.93066,3.34886 0.39632,2.83965 0.69252,-0.26575 2.32093,0.98873 3.94463,3.03882 1.52088,1.92027 3.41705,3.49139 4.21373,3.49139 0.96883,0 2.12758,1.70972 3.49926,5.1631 2.06332,5.19467 3.25709,6.82952 2.35112,3.21979 z m 70.04929,-1.58522 c 0.5445,-1.01741 1.47022,-1.56698 2.18043,-1.29445 2.19869,0.84372 6.20754,-0.45409 6.65194,-2.15347 0.23425,-0.8958 0.90039,-1.62872 1.4803,-1.62872 0.73338,0 0.91382,1.04792 0.59271,3.44207 -0.25393,1.89314 -0.23307,3.44207 0.0464,3.44207 1.33401,0 4.49128,-3.95518 4.49128,-5.62633 0,-1.22843 1.20325,-2.71811 3.45704,-4.27999 3.39216,-2.35077 8.00695,-7.11546 10.05731,-10.38398 1.0013,-1.5962 1.05638,-1.5865 1.60626,0.28328 0.54918,1.86738 2.08972,2.73318 2.08972,1.17445 0,-2.21333 -2.27215,-5.80401 -3.44206,-5.43949 -2.42565,0.75576 -4.11988,2.84168 -3.67862,4.52907 0.38282,1.46388 -0.0307,1.67643 -3.32028,1.70659 l -3.75756,0.0344 2.39195,1.29718 c 2.61536,1.41834 2.31329,3.35503 -0.41213,2.64232 -1.85994,-0.48638 -8.3464,3.49786 -8.40104,5.16026 -0.0216,0.65823 -1.26747,0.853 -3.68985,0.57685 -2.6873,-0.30636 -3.31679,-0.18004 -2.37362,0.4763 0.9979,0.69443 1.0539,1.12292 0.2516,1.92522 -0.7934,0.7934 -1.31462,0.79741 -2.25455,0.0173 -0.87754,-0.72828 -1.87507,-0.76656 -3.53456,-0.13563 -1.27161,0.48353 -4.78558,0.87909 -7.80885,0.87909 -5.33865,0 -9.88041,1.25016 -9.88041,2.71968 0,0.39731 2.90424,0.72238 6.45388,0.72238 5.91738,0 6.45387,0.14559 6.45387,1.75131 0,1.47789 0.26562,1.60916 1.70131,0.8408 0.93573,-0.50078 2.12712,-1.70614 2.64754,-2.67857 z m -41.35107,-3.51909 c 0,-0.41308 -0.67766,-0.98059 -1.50591,-1.26115 -0.82825,-0.28055 -3.61899,-1.44536 -6.20164,-2.58843 -4.2769,-1.89296 -5.08281,-1.9889 -9.03542,-1.07559 -2.38684,0.55151 -4.92054,1.20078 -5.63047,1.44282 -2.08852,0.71204 6.1529,2.91767 9.19727,2.46143 1.76436,-0.26441 3.11057,0.0313 3.77229,0.82863 1.12358,1.35382 9.40388,1.52315 9.40388,0.19229 z m 9.46568,-2.67545 c 0,-1.62574 -5.92628,-3.62623 -7.14173,-2.41077 -1.51988,1.51987 -2.17968,1.14253 -3.98639,-2.27981 -1.40518,-2.66171 -1.71023,-2.8878 -1.7416,-1.29078 -0.0481,2.45037 -1.59981,2.5166 -2.49141,0.10634 -0.69028,-1.86597 -8.31346,-5.41537 -9.73882,-4.53445 -0.40533,0.25049 -2.7651,-1.21611 -5.24396,-3.25914 -3.94169,-3.24867 -7.79002,-5.86589 -8.62513,-5.86589 -0.14803,0 -0.11092,1.35532 0.0824,3.01181 0.38389,3.28829 -1.37435,4.32915 -2.17044,1.28487 -0.4062,-1.5534 -7.70078,-6.01771 -9.83279,-6.01771 -0.46116,0 -0.16898,1.13335 0.64928,2.51856 1.10947,1.87817 3.23701,3.20981 8.36738,5.23714 3.7838,1.49522 7.8798,2.82304 9.10223,2.95073 1.88224,0.1966 2.2635,0.71237 2.48968,3.36803 0.27369,3.21366 1.74285,4.01705 4.33828,2.37236 0.91191,-0.57788 0.72597,-1.05709 -0.86052,-2.21779 l -2.02381,-1.48062 2.1513,0.61266 c 1.18321,0.33696 4.08745,1.49866 6.45387,2.58156 12.71228,5.81724 13.97715,6.2791 17.42546,6.36287 1.75491,0.0426 2.79668,-0.34849 2.79668,-1.04997 z m 30.9786,-0.43103 c 0,-1.15616 -1.98709,-2.75477 -3.39904,-2.73451 -0.73359,0.0105 -2.30188,0.77637 -3.48509,1.70189 l -2.1513,1.68277 4.51772,0.0191 c 2.48474,0.0106 4.51771,-0.29062 4.51771,-0.66925 z m -63.75273,-3.36406 c 0.91311,-2.00405 0.849,-2.48739 -0.4566,-3.44206 -2.3188,-1.69555 -3.52696,-1.34151 -4.17038,1.22206 -0.4299,1.71287 -0.18234,2.62746 0.9317,3.44207 2.11718,1.54812 2.48916,1.4251 3.69528,-1.22207 z m 45.00831,-0.41918 c 4.37684,-2.33283 5.50066,-3.44381 7.39897,-7.31439 2.28658,-4.66225 4.46132,-6.0031 4.46132,-2.75067 0,1.10197 0.42188,1.64751 1.07564,1.39091 7.05886,-2.7706 9.88356,-4.49967 10.82485,-6.62617 1.92399,-4.34662 10.62368,-12.20323 11.99465,-10.83227 0.33411,0.33411 -0.44747,2.58586 -1.73684,5.00388 -1.28937,2.41801 -2.22969,4.51102 -2.08959,4.65112 0.25359,0.25359 19.74637,-5.57384 19.92377,-5.95628 0.0512,-0.11041 1.14741,-1.84649 2.43596,-3.85794 2.21536,-3.4582 2.16599,-4.88159 -0.091,-2.62458 -0.80314,0.80315 -1.03262,0.59935 -1.03262,-0.91709 0,-2.78052 1.39469,-5.15891 5.61843,-9.58121 3.46697,-3.62996 8.84859,-14.21687 7.77338,-15.29208 -0.26224,-0.26223 -1.49654,-0.0121 -2.74292,0.55573 -1.24637,0.56788 -2.39819,0.90044 -2.55962,0.73902 -0.69895,-0.69895 4.38657,-6.65568 7.96522,-9.32976 4.48953,-3.3547 5.50027,-5.07243 7.56755,-12.86081 2.41593,-9.10187 2.15936,-9.58402 -7.11962,-13.37902 -3.37559,-1.38059 -7.59085,-5.23887 -6.69849,-6.13123 0.19928,-0.19929 1.54079,0.24706 2.98112,0.99188 4.00753,2.07238 4.19582,1.64942 0.83369,-1.8727 -4.84643,-5.07704 -8.23375,-10.28759 -9.83013,-15.12117 -0.80934,-2.45057 -2.33587,-5.61728 -3.39229,-7.03714 -3.07658,-4.13497 -5.63776,-9.74595 -4.71029,-10.31917 0.45998,-0.28428 1.65049,-0.0811 2.64557,0.4514 1.77078,0.94769 1.79611,0.86167 1.19214,-4.04767 -0.64487,-5.24177 -1.35317,-6.27166 -4.32829,-6.29352 -2.79872,-0.0206 -3.20046,-1.09462 -1.0427,-2.78767 1.96309,-1.54033 1.96461,-1.55768 0.25389,-2.8937 -2.12045,-1.65601 -13.02216,-8.10008 -13.70327,-8.10008 -0.87873,0 -0.51798,2.08739 0.79625,4.60728 1.25597,2.40815 1.08202,3.99789 -0.43744,3.99789 -1.58613,0 -5.67004,-4.63171 -8.1636,-9.25862 -2.14009,-3.97105 -3.39699,-5.20931 -7.28375,-7.17574 -2.58355,-1.3071 -4.98422,-2.19924 -5.33485,-1.98254 -0.35063,0.2167 -0.40228,2.38 -0.1148,4.80733 0.66183,5.58818 -0.22296,5.12035 -5.05061,-2.67048 -3.46578,-5.59307 -3.88084,-5.94872 -8.0247,-6.87608 -3.46487,-0.7754 -5.07217,-0.7348 -7.76084,0.19604 -2.92328,1.01207 -3.80952,1.9871 -6.42603,7.06979 -2.7603,5.36199 -5.33047,8.29315 -6.36123,7.2547 -0.21827,-0.21991 -0.0952,-2.04556 0.27344,-4.05702 0.51323,-2.80018 0.40303,-3.6572 -0.47022,-3.6572 -0.62728,0 -4.50853,2.54022 -8.62499,5.64493 -4.11647,3.10471 -8.94622,6.39066 -10.73279,7.3021 -1.78657,0.91144 -3.50685,2.0755 -3.82286,2.58682 -0.74718,1.20896 -7.33301,5.97907 -8.25498,5.97907 -0.39044,0 -0.46716,-1.21366 -0.17049,-2.69703 l 0.53941,-2.69702 -4.99841,0.62451 c -6.60899,0.82573 -6.79912,0.92427 -8.44566,4.37711 -1.68787,3.5395 -2.77954,3.77462 -3.53577,0.76156 -0.30541,-1.21683 -1.00507,-2.0625 -1.55481,-1.87925 -0.81173,0.27058 -5.82114,11.03607 -5.82114,12.50996 0,0.22663 1.35532,0.19213 3.01181,-0.0767 2.08663,-0.33862 3.01181,-0.16072 3.01181,0.57912 0,1.11457 -3.76665,4.90521 -8.15771,8.20967 -2.62414,1.97479 -8.81575,13.84821 -7.22138,13.84821 0.4749,0 1.5741,-0.38032 2.44266,-0.84517 3.06074,-1.63806 -0.10308,5.28222 -4.50447,9.85269 -2.69454,2.79804 -4.53205,5.67383 -5.31939,8.3251 -1.1731,3.95027 -1.14081,4.14826 1.30586,8.00626 1.38272,2.18033 3.57406,4.35829 4.88231,4.85252 2.5856,0.97678 7.10644,4.92839 7.10644,6.21165 0,0.43994 -0.77447,0.59737 -1.72104,0.34983 -0.94657,-0.24754 -1.72103,-0.2656 -1.72103,-0.0402 0,0.22545 1.81152,3.38387 4.02562,7.0187 2.21408,3.63484 4.68143,8.35134 5.48299,10.48112 1.14423,3.04024 2.50362,4.57447 6.32626,7.13991 4.86727,3.2665 5.51956,4.89569 1.97006,4.9205 -4.62666,0.0324 -5.3293,3.24059 -2.73413,12.48413 1.12355,4.00187 1.56833,4.49639 5.99817,6.669 5.4504,2.67312 7.22691,3.00765 5.60705,1.05584 -2.84988,-3.43389 6.15189,-0.0577 12.47749,4.67971 2.36642,1.7723 5.85151,3.72145 7.74465,4.33145 1.89313,0.60998 3.91308,1.48244 4.48878,1.93879 2.1259,1.68519 2.94747,0.19353 1.15117,-2.09009 -1.32607,-1.68584 -1.5238,-2.45511 -0.75343,-2.93123 0.66397,-0.41035 2.78713,1.27878 5.8278,4.63644 3.30189,3.64612 5.94817,5.69295 8.54452,6.609 5.10039,1.79952 5.22694,1.75385 4.66893,-1.68477 -0.39627,-2.44197 -0.21492,-3.01181 0.95852,-3.01181 1.29095,0 2.33786,1.76238 4.21722,7.09926 0.69577,1.97582 0.78226,1.95998 6.79488,-1.24472 z m 31.38049,-0.76821 c 2.04255,-0.98879 3.71375,-2.1126 3.71375,-2.49737 0,-1.15928 -5.22177,-2.60703 -7.41639,-2.05621 -2.36763,0.59423 -2.5776,1.39961 -0.75852,2.90931 0.70992,0.58919 1.29077,1.41107 1.29077,1.8264 0,1.06855 -3.82202,0.93721 -6.35851,-0.21849 -1.22007,-0.5559 -2.80655,-0.67733 -3.69768,-0.28302 -1.26723,0.56073 -0.99433,0.80346 1.45103,1.29062 5.38616,1.07301 7.99763,0.85762 11.77555,-0.97124 z m -81.93811,-3.31604 c 0.47171,-0.76324 -7.19534,-4.72728 -7.85923,-4.06339 -0.17014,0.17013 0.49866,1.33652 1.48621,2.59199 1.77924,2.26194 5.37181,3.09139 6.37302,1.4714 z m 92.12896,-5.17478 c -0.27973,-0.45262 -1.07705,-0.6048 -1.77182,-0.33819 -1.77879,0.68259 -1.56917,1.16113 0.5086,1.16113 0.9745,0 1.54295,-0.37033 1.26322,-0.82294 z m -117.31165,-12.25692 c -0.56794,-0.56794 -1.03262,-1.65838 -1.03262,-2.42321 0,-1.99046 -5.64072,-6.77832 -6.9977,-5.93966 -1.81177,1.11973 -2.46798,0.0335 -2.46798,-4.08537 0,-3.08062 -0.26786,-3.81081 -1.25851,-3.43066 -0.8578,0.32916 -1.98863,-0.85854 -3.55159,-3.73023 -1.2612,-2.31724 -2.81792,-4.41456 -3.45937,-4.66071 -0.77749,-0.29835 -1.00312,-1.2634 -0.67682,-2.89491 0.33251,-1.66251 0.0484,-2.81348 -0.88609,-3.58898 -0.94488,-0.78419 -1.10833,-1.46362 -0.52201,-2.17008 0.56098,-0.67595 0.56462,-2.03586 0.0106,-3.9676 -0.46362,-1.61653 -0.85525,-5.45872 -0.8703,-8.53819 -0.0246,-5.03715 -1.21332,-8.61084 -2.86418,-8.61084 -1.04282,0 -0.5924,11.02933 0.46481,11.38174 0.57865,0.19289 0.76919,0.97988 0.44302,1.82985 -0.62822,1.63711 -2.60697,1.00616 -5.30456,-1.69143 -0.76937,-0.76937 -1.57145,-1.22625 -1.78239,-1.0153 -0.76636,0.76636 3.91999,9.23313 5.61165,10.13847 0.95589,0.51157 1.74649,1.78778 1.75687,2.83602 0.0297,2.99188 3.08607,8.97932 5.14659,10.08207 1.39057,0.74421 1.7407,1.51479 1.36621,3.00684 -0.37553,1.49624 0.36084,3.09971 2.8969,6.30806 3.64389,4.60986 4.93,5.68428 6.84714,5.72013 2.39481,0.0447 1.83541,2.02844 -0.73098,2.59211 -1.4395,0.31616 -2.83818,0.93229 -3.10818,1.36916 -0.63225,1.02299 3.09845,1.01127 4.7201,-0.0148 0.84017,-0.53162 1.91281,-0.25129 3.34298,0.8737 2.33379,1.83575 4.60603,2.32349 2.9064,0.62386 z M 35.78673,483.5544 c 1.42436,-2.97591 3.45395,-7.43957 4.5102,-9.91925 1.73911,-4.08276 2.12472,-4.45723 4.08352,-3.96561 l 2.16304,0.54289 -0.44537,-5.28494 c -0.24497,-2.90671 -0.10254,-5.28494 0.31649,-5.28494 0.41902,0 0.76332,-0.48404 0.76509,-1.07565 0.002,-0.5916 0.86224,-2.43095 1.91215,-4.08745 1.04991,-1.65649 2.74966,-5.25883 3.77722,-8.00519 1.54061,-4.11762 1.70039,-5.43818 0.911,-7.52952 -0.52651,-1.39488 -1.17112,-2.53614 -1.43247,-2.53614 -0.45949,0 -3.08029,8.47806 -4.00239,12.94738 -0.30644,1.48524 -1.6705,2.83731 -4.23503,4.1978 -2.08065,1.10378 -3.56276,2.36326 -3.29355,2.79883 0.28269,0.4574 0.99775,0.37011 1.69266,-0.20661 1.27957,-1.06195 3.80668,-0.53438 3.80668,0.79471 0,0.43682 -0.87128,1.01986 -1.93617,1.29562 -1.38492,0.35864 -2.61894,2.10891 -4.33437,6.14765 -1.31901,3.10544 -2.14032,6.06352 -1.82514,6.5735 0.31518,0.50997 -1.70348,2.98835 -4.48592,5.5075 -4.82818,4.3713 -4.94551,4.57297 -2.57143,4.42025 2.88076,-0.18531 4.00793,1.58897 1.51258,2.38096 -0.92838,0.29465 -2.30501,2.0779 -3.05918,3.96276 -1.79379,4.48313 -1.78385,4.51029 1.10471,3.01655 1.64473,-0.85052 3.34536,-3.09683 5.06568,-6.6911 z m 6.21373,1.82984 c 3.53961,-2.17795 4.31551,-3.09358 4.31551,-5.09272 0,-1.34055 0.23504,-3.04988 0.52232,-3.79851 0.34275,-0.89321 0.0469,-1.36116 -0.86052,-1.36116 -0.76056,0 -1.38284,-0.38723 -1.38284,-0.86052 0,-2.3428 -1.64804,-0.24667 -4.22852,5.37823 -4.58568,9.99585 -4.69093,9.62647 1.63405,5.73468 z m -148.8141,-6.51165 c -0.46659,-3.28987 -1.46343,-7.4537 -2.2152,-9.25294 -1.2769,-3.05605 -1.46722,-3.18053 -2.89171,-1.89138 -2.2722,2.05632 -2.46552,1.77595 -2.01417,-2.9213 0.38922,-4.05066 0.14371,-4.71278 -4.21377,-11.36424 -4.31438,-6.58568 -4.64654,-6.89449 -4.91523,-4.56964 -0.4017,3.47576 0.65762,9.90894 1.63167,9.90894 0.44428,0 0.82885,1.45213 0.85458,3.22694 0.0572,3.94706 2.53962,10.68787 4.13096,11.21746 0.85677,0.28512 1.01585,-0.1524 0.5999,-1.64997 l -0.56604,-2.03797 1.76652,2.03149 c 0.97158,1.11733 1.81491,2.95669 1.87408,4.08746 0.0591,1.13078 0.15596,2.40518 0.21512,2.83201 0.15116,1.09055 5.78005,7.17631 6.22553,6.73083 0.20135,-0.20135 -0.0157,-3.05781 -0.48224,-6.34769 z m -18.7794,-3.74396 c -3.11493,-1.89917 -3.6364,-2.04593 -3.6364,-1.02341 0,0.38192 1.06489,1.11519 2.36642,1.62949 3.78751,1.49663 4.30987,1.24734 1.26998,-0.60608 z M 54.14658,464.38395 c -1.63608,-5.53575 -1.57732,-6.03217 0.71413,-6.03217 2.02262,0 2.08354,-0.18249 1.86659,-5.59121 -0.12334,-3.07517 -0.31724,-5.6842 -0.43089,-5.79784 -0.11365,-0.11365 -1.86366,2.9585 -3.88892,6.82701 -2.51235,4.79889 -3.74486,8.28143 -3.87922,10.96094 -0.10831,2.16001 -0.4671,5.28261 -0.79731,6.9391 -0.45186,2.26671 -0.39675,2.5546 0.22277,1.16371 1.24968,-2.80565 2.66482,-3.29828 2.66482,-0.92765 0,3.62202 1.24301,3.46556 2.91932,-0.36747 1.39923,-3.19947 1.48495,-4.20965 0.60871,-7.17442 z m 6.79817,2.68939 c 0,-0.59004 0.96743,-2.38409 2.14985,-3.98678 1.4807,-2.00697 1.84375,-3.10314 1.16641,-3.52177 -0.5648,-0.34906 -1.05758,-3.30083 -1.15758,-6.93402 -0.15498,-5.63044 -0.88196,-10.31668 -1.87721,-12.10077 -0.1876,-0.3363 -1.07989,0.0212 -1.98289,0.79431 -1.2782,1.09443 -1.44661,1.77047 -0.76043,3.05261 0.48477,0.90578 1.00622,4.77172 1.15881,8.59098 0.20677,5.17552 0.6181,7.13475 1.61501,7.69265 0.73567,0.41171 1.1271,1.29705 0.86985,1.96743 -0.35274,0.91923 -0.9924,1.01941 -2.60183,0.4075 -3.45016,-1.31174 -3.67639,-0.99659 -1.90961,2.66024 1.54463,3.19701 3.32962,3.93554 3.32962,1.37762 z m -180.7085,-22.93648 c 0,-0.50568 0.91073,-0.64833 2.15129,-0.33697 1.21157,0.30408 2.15129,0.16714 2.15129,-0.31351 0,-0.95126 -2.85005,-1.88497 -5.80849,-1.90293 -1.98925,-0.012 -2.73557,-2.18341 -0.95453,-2.77709 0.63126,-0.21042 0.23365,-1.54138 -1.11397,-3.72891 -3.6652,-5.94953 -6.84081,-14.6392 -7.25742,-19.85896 -0.22191,-2.7806 -0.56793,-6.895 -0.7689,-9.1431 -0.32234,-3.60565 -0.16733,-4.08746 1.31507,-4.08746 1.82174,0 2.23263,-1.68521 0.76801,-3.14982 -0.64296,-0.64296 -0.1689,-2.02818 1.605,-4.68982 1.38461,-2.07753 3.53243,-5.40691 4.77292,-7.39861 1.88731,-3.03019 10.55497,-10.57725 12.14779,-10.57725 0.26201,0 2.1179,-0.73575 4.1242,-1.63502 7.3332,-3.28689 9.37257,-3.67731 10.58037,-2.02555 1.01369,1.38629 1.2343,1.32135 2.9588,-0.87098 1.04598,-1.32976 2.28968,-2.10554 2.83509,-1.76846 1.59404,0.98517 8.68159,0.22605 10.145,-1.08659 2.09792,-1.88178 3.37149,-1.45219 3.40294,1.14786 l 0.0287,2.36642 1.6924,-2.0315 c 0.9308,-1.11732 1.69238,-2.54659 1.69238,-3.17615 0,-1.69066 1.62699,-2.39552 2.96542,-1.28472 0.91475,0.75916 3.01209,-0.4135 9.64312,-5.39164 4.66077,-3.499 9.34539,-6.82011 10.41028,-7.38025 1.06489,-0.56014 1.93616,-1.58566 1.93616,-2.27894 0,-2.44147 2.37423,-1.22608 3.0009,1.53618 l 0.63447,2.79668 1.24395,-3.05106 c 1.55805,-3.82141 2.89665,-4.64989 11.22303,-6.94607 10.22895,-2.82085 15.59731,-3.53968 22.19065,-2.97137 6.0398,0.52059 19.54076,4.40856 20.07872,5.7822 0.15776,0.40283 0.68673,0.73243 1.17549,0.73243 0.48875,0 2.68307,1.31882 4.87625,2.93071 4.10938,3.02021 8.72046,10.50249 8.72046,14.15047 0,1.07093 0.54364,1.85019 1.29078,1.85019 1.87171,0 1.60397,0.98062 -1.17741,4.31225 -2.45405,2.93957 -2.45774,2.96168 -0.64538,3.86524 2.00294,0.99857 1.99154,0.95733 2.14548,7.76907 0.0833,3.68468 0.44773,4.88535 1.61347,5.31546 3.71327,1.37004 3.1227,3.91312 -0.65699,2.82911 -1.93032,-0.5536 -2.56995,-0.45338 -2.56995,0.40266 0,1.37904 4.22387,6.03031 6.02362,6.63312 1.07348,0.35955 1.10169,0.66145 0.16757,1.79338 -2.00635,2.43124 2.88823,10.31204 12.37394,19.92339 5.8637,5.94137 9.25636,10.19811 11.1882,14.03776 2.77249,5.51049 2.77261,5.5106 4.17373,3.52015 1.23832,-1.75917 1.24842,-2.02286 0.0869,-2.26874 -0.72287,-0.15303 -1.3143,-1.12803 -1.3143,-2.16667 0,-1.03864 -1.01836,-3.43045 -2.26303,-5.31513 -3.35464,-5.07963 -12.51843,-14.18315 -14.27705,-14.18315 -1.06856,0 -1.53077,-0.66491 -1.53077,-2.20208 0,-1.21114 -0.34335,-1.98987 -0.76301,-1.73051 -0.87211,0.53899 -2.84981,-1.53539 -2.52252,-2.64584 0.11931,-0.40478 -0.80151,-3.44659 -2.04626,-6.75958 -2.66576,-7.09507 -2.9267,-8.55278 -4.15804,-23.22783 -0.97383,-11.60608 -2.73506,-18.92158 -4.74072,-19.69122 -0.81583,-0.31307 -1.02927,-1.42803 -0.71195,-3.71901 l 0.45318,-3.27191 -1.60858,1.97493 c -1.78159,2.18736 -2.83346,1.75371 -2.83346,-1.16813 0,-1.36751 -1.27256,-2.73476 -4.43287,-4.76273 -2.43807,-1.56451 -5.11281,-2.79334 -5.94386,-2.73074 -0.91971,0.0693 -1.91979,-0.87311 -2.55566,-2.40824 -0.57457,-1.38714 -1.42636,-2.52206 -1.89286,-2.52206 -0.4665,0 -0.65028,0.48404 -0.40841,1.07564 1.66101,4.06271 1.66002,4.08746 -0.16358,4.08746 -1.22104,0 -1.8131,-0.54541 -1.8131,-1.67025 0,-2.18226 -1.15857,-2.82286 -5.47988,-3.02994 -2.3064,-0.11053 -5.05074,-1.12873 -7.81147,-2.8982 -5.28869,-3.38976 -5.84445,-3.40204 -4.1935,-0.0926 1.52668,3.06029 0.90949,4.19896 -1.47036,2.71272 -0.94885,-0.59256 -3.06295,-0.84611 -4.90884,-0.58872 -1.78322,0.24865 -4.79115,0.67682 -6.68429,0.95148 -4.62063,0.67037 -16.14297,5.11553 -21.78306,8.4036 -2.515,1.46619 -5.41925,3.13944 -6.45388,3.71833 -1.17342,0.65654 -1.77986,1.70871 -1.61192,2.79668 0.24077,1.55989 -0.19643,1.74416 -4.13824,1.74416 -2.84249,0 -4.21035,0.31893 -3.85234,0.89821 0.88657,1.43449 -1.32844,3.43244 -6.1879,5.58152 -4.20418,1.85928 -9.79921,2.94813 -22.07064,4.29516 -3.11989,0.34247 -5.17772,1.00876 -5.47029,1.77119 -0.67781,1.76632 -2.19524,1.51468 -5.85904,-0.97164 -1.77802,-1.2066 -3.39182,-2.03477 -3.58622,-1.84038 -0.19439,0.1944 0.0604,1.44201 0.56627,2.77248 1.29524,3.40673 0.54588,5.06618 -1.66441,3.68583 -1.39508,-0.87124 -1.97736,-0.79908 -3.31423,0.41078 -1.13132,1.02382 -3.11308,1.4677 -6.5528,1.4677 -3.0682,0 -4.73008,0.32508 -4.39916,0.86052 0.2925,0.47328 1.28344,0.86051 2.20208,0.86051 2.26102,0 2.20874,3.10052 -0.0623,3.69441 -0.9529,0.24919 -2.2765,1.74648 -2.94133,3.32731 -0.66483,1.58082 -2.40221,4.01156 -3.86082,5.40164 -2.92498,2.78754 -3.31983,3.92646 -1.36126,3.92646 2.01305,0 1.5171,1.65481 -0.81431,2.71707 -1.57382,0.71708 -2.33393,2.02617 -3.01181,5.18702 -0.4987,2.32532 -0.90672,4.83073 -0.90672,5.56757 0,0.73685 -1.09671,2.75076 -2.43715,4.47536 -3.97844,5.11867 -4.1079,5.60078 -1.08417,4.03714 3.09276,-1.59933 2.8312,-1.9638 4.77412,6.65241 2.06383,9.15236 13.37598,28.58504 13.37599,22.97804 z m -9.46569,-7.72826 c 0,-1.99592 -0.31118,-2.07557 -2.83405,-0.72538 -1.81823,0.97309 -1.82182,1.01073 -0.15856,1.66056 2.63113,1.02795 2.99261,0.91499 2.99261,-0.93518 z m 7.83698,-15.4893 c 1.01938,0 6.79181,-5.1953 6.79181,-6.11276 0,-0.42426 -1.33246,-0.77137 -2.96102,-0.77137 -1.62857,0 -3.20035,-0.38723 -3.49286,-0.86052 -1.02061,-1.6514 -1.88662,-0.83441 -2.96446,2.79668 -0.59708,2.01146 -1.43557,4.0874 -1.86332,4.6132 -0.48067,0.59086 -0.22143,2.23428 0.6787,4.30259 l 1.45643,3.34657 0.82321,-3.65719 c 0.45276,-2.01146 1.14194,-3.6572 1.53151,-3.6572 z m 178.62599,-2.35918 c -0.47982,-4.649 -0.45994,-4.70046 1.65898,-4.2954 l 2.14462,0.40997 -1.91723,-2.0408 c -1.05447,-1.12243 -2.42098,-2.04079 -3.03669,-2.04079 -0.80508,0 -0.91303,-0.54377 -0.38436,-1.93616 1.10142,-2.90091 -0.76917,-11.09825 -2.45955,-10.77826 -1.54832,0.29311 -2.36423,7.06116 -1.04767,8.69056 0.44976,0.55663 1.09719,4.30353 1.43873,8.32644 0.34154,4.02292 1.00918,7.79418 1.48364,8.38057 1.68349,2.08065 2.60858,0.0223 2.11953,-4.71613 z m -6.26616,-4.41007 c -0.35982,-2.25015 -1.02197,-3.55695 -1.8023,-3.55695 -0.9725,0 -1.11185,-0.81141 -0.65852,-3.8344 0.59259,-3.95169 -1.6401,-13.37593 -3.1689,-13.37593 -0.40849,0 -0.74272,0.38723 -0.74272,0.86051 0,0.47329 -0.48404,0.85815 -1.07564,0.85527 -0.68666,-0.003 -1.11557,-1.42762 -1.18605,-3.93844 -0.0902,-3.21545 -0.63984,-4.4836 -3.01181,-6.9495 -3.03673,-3.15701 -5.78722,-5.00895 -6.45197,-4.34419 -0.68301,0.683 2.14819,17.60712 3.4778,20.78931 1.42178,3.40283 2.82219,3.96393 3.23985,1.29812 0.15123,-0.96532 0.66221,-1.76263 1.1355,-1.77182 1.11486,-0.0216 1.95756,3.04021 2.06551,7.5048 0.074,3.06112 0.62575,4.04533 4.02351,7.17727 2.16575,1.99632 4.11476,3.45265 4.33112,3.23629 0.21637,-0.21637 0.13744,-1.99402 -0.17538,-3.95034 z m -176.25968,-1.11911 c 1.12895,-2.50355 1.5419,-5.10071 1.36821,-8.60517 -0.2448,-4.9396 0.30175,-5.95223 2.19223,-4.06174 1.38763,1.38762 2.37232,0.45086 3.67492,-3.49606 0.63261,-1.91686 1.41418,-3.4852 1.73679,-3.4852 0.32261,0 1.02165,-1.45212 1.55339,-3.22694 0.53175,-1.77482 1.72109,-4.77587 2.64298,-6.669 0.92188,-1.89314 1.52827,-3.59134 1.34753,-3.77377 -0.81571,-0.82334 -4.68491,2.70572 -4.68491,4.27306 0,0.96272 -0.4332,3.47081 -0.96267,5.57353 -1.00905,4.00729 -2.84125,5.02886 -3.77017,2.10208 -0.83015,-2.61556 -1.92565,-2.08769 -4.01812,1.93617 -1.45387,2.7958 -1.84899,4.85934 -1.67753,8.76115 0.20014,4.55474 0.0788,4.98323 -1.12749,3.98208 -1.20553,-1.0005 -1.35177,-0.50538 -1.35177,4.57687 0,3.13429 0.32843,5.69872 0.72983,5.69872 0.40141,0 1.45746,-1.6136 2.34678,-3.58578 z m 11.63243,-10.05335 c 2.94044,-6.41884 3.98573,-7.86525 6.65216,-9.20487 3.0139,-1.51418 3.06178,-1.60369 1.01223,-1.89236 -4.3687,-0.61534 -4.64395,-0.99568 -2.29555,-3.17209 1.22427,-1.13463 2.4813,-3.16084 2.79338,-4.50271 0.31209,-1.34188 1.03436,-3.21423 1.60504,-4.1608 0.57068,-0.94657 1.27612,-2.37054 1.56765,-3.1644 0.45717,-1.24489 0.20092,-1.32862 -1.86357,-0.60893 -1.67128,0.58261 -2.93575,2.05693 -4.19005,4.88543 -4.50638,10.16204 -8.80361,20.69617 -8.80361,21.581 0,0.53411 -1.13055,0.97111 -2.51232,0.97111 l -2.51233,0 1.35208,3.44206 c 0.74364,1.89314 1.88177,3.44207 2.52917,3.44207 0.6474,0 2.74698,-3.42698 4.66572,-7.61551 z m 167.94339,-8.73431 c 3.02698,0 2.49071,-1.05392 -1.49979,-2.94754 -1.73657,-0.82406 -3.02569,-2.06831 -3.02569,-2.92038 0,-2.06099 -4.94446,-7.85981 -7.54477,-8.84845 -2.07879,-0.79035 -2.09847,-0.87148 -0.61034,-2.51584 1.50747,-1.66574 1.46799,-1.69915 -2.00745,-1.69915 -2.66446,0 -3.77397,-0.42755 -4.46622,-1.72104 -1.26678,-2.36699 -2.58155,-2.15912 -2.58155,0.40816 0,1.45287 0.75233,2.51825 2.36845,3.35397 1.30265,0.67362 3.10521,2.03888 4.00569,3.03391 0.90048,0.99502 2.16776,1.80913 2.81617,1.80913 0.6484,0 1.41237,1.1673 1.69771,2.594 0.34222,1.7111 0.97565,2.51654 1.86105,2.36642 0.87902,-0.14904 1.5319,0.66334 1.89181,2.35397 0.89294,4.19456 2.57516,6.79238 3.68179,5.68575 0.5241,-0.5241 2.06001,-0.95291 3.41314,-0.95291 z m -172.3394,-9.35592 c 0.0111,-1.7176 -0.19163,-1.87155 -1.2776,-0.97028 -1.34229,1.114 -1.72051,3.58602 -0.70417,4.60236 0.83748,0.83747 1.96627,-1.23133 1.98177,-3.63208 z M 21.36534,365.42123 C 20.18849,364.00321 0.38523,352.95097 -5.7453,350.29072 c -2.36642,-1.02687 -6.00495,-2.62923 -8.08562,-3.5608 -2.82501,-1.26483 -4.7318,-1.55148 -7.52952,-1.13194 -3.77981,0.56682 -5.24839,2.1774 -1.98542,2.1774 1.05578,0 2.34811,1.03169 3.22693,2.57611 1.59815,2.80855 2.75666,3.34195 2.75666,1.26921 0,-1.55769 2.50897,-2.73606 3.31378,-1.55636 0.52784,0.77371 6.78398,3.89658 11.07272,5.52716 1.24745,0.47428 1.96493,1.46018 1.96772,2.70391 0.003,1.07661 0.99435,3.5064 2.20426,5.39953 2.12309,3.32198 2.18599,3.35352 1.80315,0.90407 -0.21817,-1.3959 -0.0183,-3.52567 0.44415,-4.73284 l 0.84083,-2.19485 1.49853,1.83927 c 0.82418,1.01159 3.02069,2.66727 4.88112,3.67929 5.3765,2.92466 9.33608,5.32793 10.26673,6.23142 1.25286,1.2163 1.6593,-2.52442 0.43462,-4.00007 z m -117.03463,-1.77707 c 0,-0.73786 -0.38723,-1.10224 -0.86051,-0.80973 -0.47329,0.2925 -0.86052,0.8962 -0.86052,1.34155 0,0.44535 0.38723,0.80974 0.86052,0.80974 0.47328,0 0.86051,-0.60371 0.86051,-1.34156 z m 9.62989,-5.58064 c 1.47775,-1.99875 2.26282,-2.35926 4.2655,-1.95873 2.85828,0.57166 3.395,-0.99858 0.59188,-1.73161 -1.59526,-0.41718 -1.69928,-0.68378 -0.72488,-1.85787 0.67606,-0.8146 1.45261,-1.05586 1.91386,-0.5946 1.16294,1.16293 8.91266,-3.29327 10.55119,-6.06707 1.56786,-2.65418 1.48459,-2.73214 -1.64669,-1.54162 -1.21403,0.46157 -2.20731,1.42965 -2.20731,2.15129 0,0.72164 -0.58085,1.31207 -1.29078,1.31207 -1.69066,0 -1.66827,-3.18892 0.0513,-7.30442 l 1.34206,-3.21202 -2.64582,1.884 c -3.15444,2.24616 -5.48219,6.39217 -4.7984,8.54658 0.35828,1.12886 -0.46821,2.21435 -3.04634,4.001 -1.94592,1.34852 -4.67517,3.82672 -6.06502,5.50711 -2.12165,2.56518 -2.67308,2.8482 -3.43783,1.76447 -0.70961,-1.00559 -0.80189,-0.81546 -0.4177,0.86052 0.27124,1.18321 0.49845,2.6617 0.50491,3.28553 0.0157,1.52371 4.65431,-1.79064 7.06008,-5.04463 z m 7.48563,4.36363 c 4.60479,-0.91037 10.42102,-3.22141 10.42102,-4.14073 0,-0.26377 -0.60619,-1.14941 -1.34709,-1.96809 -1.25288,-1.38442 -1.08738,-1.52895 2.36642,-2.06678 5.23162,-0.81468 6.72532,-1.31031 6.72532,-2.23157 0,-0.44139 -0.99354,-0.80253 -2.20787,-0.80253 -1.21432,0 -2.89593,-0.36824 -3.73689,-0.81831 -1.89182,-1.01248 -7.39325,1.49191 -7.39325,3.36558 0,1.58952 -5.2766,5.19738 -7.60132,5.19738 -1.75564,0 -5.73669,3.1013 -5.73669,4.46897 0,0.39981 0.87127,0.54379 1.93616,0.31997 1.06489,-0.22382 4.02328,-0.81957 6.57419,-1.32389 z m 98.29632,-3.27334 c -0.49355,-0.92219 -2.26056,-2.87363 -3.9267,-4.33652 -2.39527,-2.10307 -3.66861,-2.60244 -6.08348,-2.38575 -1.67977,0.15073 -3.2127,0.43263 -3.4065,0.62643 -0.40417,0.40417 13.59602,8.41502 14.02918,8.02744 0.15667,-0.14019 -0.11896,-1.0094 -0.6125,-1.9316 z m -75.42701,-10.24703 c 4.3014,-2.05119 3.82299,-3.16488 -1.04645,-2.43609 -5.08191,0.76059 -5.72189,1.14452 -4.45413,2.67208 1.28507,1.54842 1.80546,1.52609 5.50058,-0.23599 z M 4.15065,348.6146 c 0,-1.25749 -3.62788,-2.46978 -9.30302,-3.10868 -5.44306,-0.61278 -5.40226,0.18981 0.12389,2.43651 4.02541,1.63657 9.17913,2.01396 9.17913,0.67217 z m -61.19436,-4.26675 c 2.54934,-0.48128 5.83674,-0.87505 7.30534,-0.87505 3.54283,0 9.99538,-2.70559 9.99944,-4.19282 0.003,-0.93491 -0.25714,-0.96492 -1.24628,-0.14402 -0.68722,0.57035 -3.97905,1.10181 -7.31516,1.18102 l -6.06567,0.14401 7.7e-4,-2.79668 c 4.3e-4,-1.53817 -0.3118,-2.79668 -0.69384,-2.79668 -1.33113,0 -6.39556,4.7325 -7.12909,6.66182 -0.73932,1.94458 -3.363,2.74974 -3.363,1.03205 0,-0.50122 -0.41246,-0.65639 -0.91657,-0.34483 -1.35182,0.83547 1.76357,3.957 3.42736,3.43412 0.74884,-0.23534 3.44736,-0.82167 5.9967,-1.30294 z"
       id="path11210"
       inkscape:connector-curvature="0"
       sodipodi:nodetypes="sscscsssssssssscsssscssssssssssscsscssssssssssssssscssscscsssssssscsssssssssssssssssssccssssssssssssssscsscssssssssscssssssssscsssssssscscsssssssssssssssssssssssssssscsssssssssssscccssssssssscsssssscssssssssssssssssccsssssssssssssscsscsssccssssssssssssssssssssssccssssssscsscsscsccsssssscssssssccssssscsssssssssssssssssssssssssssssssssscsssssssssssssssssssssssssssscsssssccssssssssssssscssccssssssscscssssssscssssssssccssscsscsssssssssssssssssssscsssssssssssssscscssssssssssssssssssssssscsssssssssscssssssssssssssccssssssscssscsssssssssssssssssssssssssscssssssssssssssssssssssssccssssssssssssssssssssssssssscsssscssssssssssssscssssscsscssssssssssssssssssssssssssssscsssssssssssssssssssssssssssssssscssccssssssssssssssssssscsssssscssssssssssssssssscssssssssssscsscsssssss" />
  </g>
</svg>
