<?xml version="1.0" encoding="UTF-8" standalone="no"?>
<!-- Created with Inkscape (http://www.inkscape.org/) -->

<svg
   xmlns:dc="http://purl.org/dc/elements/1.1/"
   xmlns:cc="http://creativecommons.org/ns#"
   xmlns:rdf="http://www.w3.org/1999/02/22-rdf-syntax-ns#"
   xmlns:svg="http://www.w3.org/2000/svg"
   xmlns="http://www.w3.org/2000/svg"
   xmlns:xlink="http://www.w3.org/1999/xlink"
   xmlns:sodipodi="http://sodipodi.sourceforge.net/DTD/sodipodi-0.dtd"
   xmlns:inkscape="http://www.inkscape.org/namespaces/inkscape"
   width="52.444653mm"
   height="73.178185mm"
   viewBox="0 0 185.82752 259.29278"
   id="svg7033"
   version="1.1"
   inkscape:version="0.91 r13725"
   sodipodi:docname="Emblema Cofradía del Santo Cristo del Perdón.svg">
  <defs
     id="defs7035">
    <linearGradient
       inkscape:collect="always"
       id="linearGradient4177">
      <stop
         style="stop-color:#eac102;stop-opacity:1;"
         offset="0"
         id="stop4179" />
      <stop
         style="stop-color:#d37c00;stop-opacity:1"
         offset="1"
         id="stop4181" />
    </linearGradient>
    <inkscape:path-effect
       effect="bend_path"
       id="path-effect4378"
       is_visible="true"
       bendpath="m -336.13746,223.1868 c -9.67234,-14.67849 -38.11909,-35.44035 -74.07108,-52.38862 -24.05114,-11.33804 -40.1242,-39.90596 -47.42229,-64.79021 -17.61144,-60.049596 18.68558,-111.9584422 73.42594,-117.552364 41.07665,-4.197626 92.31008,26.10803 78.1556,101.585879 -7.96498,42.472725 -129.57864,96.814095 -150.9679,126.579325"
       prop_scale="1"
       scale_y_rel="false"
       vertical="false"
       bendpath-nodetypes="cssssc" />
    <inkscape:path-effect
       effect="bend_path"
       id="path-effect5576"
       is_visible="false"
       bendpath="m -339.95291,214.34182 c -43.05609,-27.60871 -89.01984,-46.19502 -117.72433,-100.5366 -27.57778,-52.208573 33.23964,-134.374648 79.5639,-126.636426 58.11538,9.707866 77.38286,21.2713371 72.18388,90.932233 -3.83986,51.450153 -104.05281,95.514213 -147.66562,134.725563"
       prop_scale="1"
       scale_y_rel="false"
       vertical="false"
       bendpath-nodetypes="csssc" />
    <radialGradient
       inkscape:collect="always"
       xlink:href="#linearGradient4177"
       id="radialGradient4183"
       cx="-255.70715"
       cy="127.61467"
       fx="-255.70715"
       fy="127.61467"
       r="57.527334"
       gradientTransform="matrix(2.787914,-0.06394078,0.06741341,2.9393272,449.44603,-286.24232)"
       gradientUnits="userSpaceOnUse" />
  </defs>
  <sodipodi:namedview
     id="base"
     pagecolor="#ffffff"
     bordercolor="#666666"
     borderopacity="1.0"
     inkscape:pageopacity="0.0"
     inkscape:pageshadow="2"
     inkscape:zoom="1.4"
     inkscape:cx="102.72034"
     inkscape:cy="191.01018"
     inkscape:document-units="px"
     inkscape:current-layer="layer1"
     showgrid="false"
     fit-margin-top="0"
     fit-margin-left="0"
     fit-margin-right="0"
     fit-margin-bottom="0"
     inkscape:window-width="1680"
     inkscape:window-height="1027"
     inkscape:window-x="-8"
     inkscape:window-y="-8"
     inkscape:window-maximized="1"
     inkscape:snap-nodes="false" />
  <metadata
     id="metadata7038">
    <rdf:RDF>
      <cc:Work
         rdf:about="">
        <dc:format>image/svg+xml</dc:format>
        <dc:type
           rdf:resource="http://purl.org/dc/dcmitype/StillImage" />
        <dc:title></dc:title>
      </cc:Work>
    </rdf:RDF>
  </metadata>
  <g
     inkscape:label="Capa 1"
     inkscape:groupmode="layer"
     id="layer1"
     transform="translate(484.69386,15.214391)">
    <g
       id="g4346"
       transform="translate(125.764,7.5761445)" />
    <g
       style="opacity:0.15;fill:#eac102;fill-opacity:1;stroke:#000000;stroke-width:0.62549913;stroke-opacity:1"
       transform="matrix(0.85553428,-1.3394958,1.395666,0.80233708,-629.45669,506.80919)"
       id="g4446">
      <g
         transform="matrix(-0.26089157,0,0,0.27019713,264.4019,11.464751)"
         style="display:inline;fill:#eac102;fill-opacity:1;stroke:#000000;stroke-width:2.35589743;stroke-miterlimit:4;stroke-dasharray:none;stroke-opacity:1"
         id="g4454" />
    </g>
    <g
       id="g4466"
       transform="matrix(1.145658,1.1016604,-1.0605146,1.2111718,-358.45123,-381.5658)"
       style="opacity:0.15;fill:#eac102;fill-opacity:1;stroke:#000000;stroke-width:0.62549913;stroke-opacity:1">
      <g
         id="g4474"
         style="display:inline;fill:#eac102;fill-opacity:1;stroke:#000000;stroke-width:2.35589743;stroke-miterlimit:4;stroke-dasharray:none;stroke-opacity:1"
         transform="matrix(-0.26089157,0,0,0.27019713,264.4019,11.464751)" />
    </g>
    <g
       id="g4692">
      <g
         style="fill:#eac102;fill-opacity:1"
         transform="translate(0.21428478,1.4285715)"
         id="g4402">
        <path
           sodipodi:nodetypes="ccccccccccccccccccccccccccccccccccccccccccccccccccccccccccccccccccccccccccccccccccccccccccccccccccccccccccccccccccccccccccccccccccccccccccccccccccccccccccccccccccccccccccccccccccccccscccccccccccccccccccccccccccccccccccccccccccccccccccccccccccccccccccccccccccccccc"
           inkscape:connector-curvature="0"
           d="m -343.85494,218.79789 c -1.59152,-2.06339 -2.94517,-4.23527 -4.03758,-6.36447 -1.8619,-3.62497 -2.9603,-7.05544 -3.15283,-9.07077 m -1.83905,6.81017 c -5.07609,-6.63044 -8.03509,-11.48295 -8.56707,-14.76377 m -1.34084,6.92847 c -0.72772,-0.78063 -1.42073,-1.55536 -2.07695,-2.32001 0,0 0,0 0,0 -4.19247,-4.88348 -6.88118,-9.35777 -7.37819,-11.91713 m -0.98349,6.98556 c -4.59121,-4.29279 -9.35713,-10.77173 -10.13733,-13.76406 m -0.66131,7.02554 c -6.31254,-5.4927 -9.81263,-10.28398 -10.73335,-13.31445 m -0.37087,7.04962 c -5.56111,-4.29723 -8.63019,-8.27264 -11.24655,-12.88941 m -0.11236,7.05766 c -1.6808,-1.32224 -3.16889,-2.57669 -4.49642,-3.79682 -3.4087,-3.08179 -5.27849,-6.28076 -6.17558,-9.25261 m -1.03726,6.94752 c -6.24663,-5.73943 -8.29603,-10.9901 -8.35119,-14.89294 m -2.28963,6.68483 c -4.3308,-5.54428 -6.40658,-12.89948 -5.86278,-16.1434 m -3.24089,6.30377 c -1.57895,-2.88785 -2.60346,-5.60358 -3.22488,-7.95906 -1.03471,-3.9088 -1.0068,-6.95283 -0.48901,-8.78117 m -3.92047,5.86526 c -2.77876,-6.60628 -2.85578,-12.04414 -1.90493,-17.00024 m -4.49436,5.44253 c -1.90105,-7.38773 -1.61991,-12.90497 -0.2415,-17.11538 m -4.98831,4.99902 c -0.8413,-4.77558 -0.91873,-8.57369 -0.48299,-11.52597 0.32293,-2.18944 0.95771,-3.98766 1.84609,-5.51181 m -5.52801,4.08345 c -1.44458,-7.720217 1.27716,-14.397707 3.30839,-16.8207 m -5.98855,3.786976 c 0.48063,-8.701293 3.1069,-14.229617 5.3309,-16.300047 m -6.39937,3.01964 c 1.33378,-8.271656 4.89399,-13.804339 7.3038,-15.459904 m -6.70537,2.170173 c 1.87891,-6.732806 6.3182,-12.777746 9.22696,-14.300548 m -6.90651,1.237899 c 3.53271,-7.977067 8.31573,-11.857529 11.10046,-12.821593 m -7.00285,0.223532 c 3.6306,-6.000295 8.04842,-9.122018 12.57721,-10.890668 0.11496,-0.04526 0.23017,-0.08974 0.34564,-0.133458 m -6.99284,-0.872678 c 0.66182,-0.724365 1.32171,-1.39632 1.9764,-2.018119 0,0 0,-1e-6 0,-1e-6 4.51438,-4.257981 8.81112,-6.219531 12.5672,-6.850787 m -6.74655,-1.98016 c 6.54016,-5.326872 11.80967,-6.8263002 15.74366,-6.465431 m -6.36949,-2.9879679 c 5.9704,-3.6708063 13.38131,-4.9653297 16.55454,-4.0435958 m -5.8718,-3.89754566 c 8.08395,-3.34910314 14.30691,-2.82423114 16.99066,-1.60426834 m -5.25761,-4.7059814 c 6.97145,-1.8824962 12.44022,-1.0191914 17.05243,0.851748 m -4.52588,-5.4139979 c 7.28959,-0.55053 12.52096,0.826677 16.14729,2.9611986 0.20016,0.1184641 0.39634,0.2398651 0.58867,0.3640935 m -3.67275,-6.0222681 c 0.88185,0.0479 1.72433,0.117943 2.52704,0.207145 0,0 0,0 0,0 6.93232,0.76534 11.09533,3.036282 13.45586,5.7279833 M -461.37483,104.59782 c -1.44458,-7.720217 1.27716,-14.397707 3.30839,-16.8207 m -5.98855,3.786976 c 0.48063,-8.701293 3.1069,-14.229617 5.3309,-16.300047 m -6.39937,3.01964 c 1.33378,-8.271656 4.89399,-13.804339 7.3038,-15.459904 m -6.70537,2.170173 c 1.87891,-6.732806 6.3182,-12.777746 9.22696,-14.300548 m -6.90651,1.237899 c 3.53271,-7.977067 8.31573,-11.857529 11.10046,-12.821593 m -7.00285,0.223532 c 3.6306,-6.000295 8.04842,-9.122018 12.57721,-10.890668 0.11496,-0.04526 0.23017,-0.08974 0.34564,-0.133458 m -6.99284,-0.872678 c 0.66182,-0.724365 1.32171,-1.39632 1.9764,-2.018119 0,0 0,-1e-6 0,-1e-6 4.51438,-4.257981 8.81112,-6.219531 12.5672,-6.850787 m -6.74655,-1.98016 c 6.54016,-5.326872 11.80967,-6.8263002 15.74366,-6.465431 m -6.36949,-2.9879679 c 5.9704,-3.6708063 13.38131,-4.9653297 16.55454,-4.0435958 m -5.8718,-3.89754566 c 8.08395,-3.34910314 14.30691,-2.82423114 16.99066,-1.60426834 m -5.25761,-4.7059814 c 6.97145,-1.8824962 12.44022,-1.0191914 17.05243,0.851748 m -4.52588,-5.4139979 c 7.28959,-0.55053 12.52096,0.826677 16.14729,2.9611986 0.20016,0.1184641 0.39634,0.2398651 0.58867,0.3640935 m -3.67275,-6.0222681 c 0.88185,0.0479 1.72433,0.117943 2.52704,0.207145 0,0 0,0 0,0 6.93232,0.76534 11.09533,3.036282 13.45586,5.7279833 m -1.63361,-6.7310223 c 7.94752,1.030606 13.21458,5.9903424 14.70055,8.7375389 m -1.38714,-6.9217969 c 2.84122,1.249496 5.1962,2.663147 7.07213,4.0681021 3.43435,2.5701528 5.30692,5.145576 5.93263,7.0251194 m -0.17851,-7.0594395 c 7.17883,4.5716823 10.50888,10.31915771 10.86208,13.1942111 m 1.0813,-6.972456 c 5.0111,4.4911655 8.0476,10.7534412 8.25336,14.3345489 0.0125,0.21561 0.0139,0.417568 0.004,0.604534 m 2.37163,-6.6447173 c 0.5578,0.7441559 1.06553,1.4833628 1.52604,2.2123294 0,0 0,1.2e-6 0,1.2e-6 3.91409,6.2182967 4.35017,11.5012107 3.72168,14.0355527 m 3.60289,-6.057999 c 3.25586,6.516393 3.28395,12.155321 2.14634,16.956129 m 4.63322,-5.330567 c 1.56717,6.433387 1.17603,11.503601 -0.0685,15.208456 -0.21955,0.656699 -0.46806,1.28264 -0.74262,1.880754 m 5.45605,-4.475141 c 0.0394,0.461417 0.0708,0.912785 0.0948,1.353869 0,0 0,1e-6 0,1e-6 0.40246,7.63354 -1.21444,12.424459 -3.57919,15.369207 m 6.0281,-3.635434 c -0.28457,6.926349 -3.23542,13.92793 -5.68465,16.125117 m 6.45002,-2.878387 c -1.52616,8.531347 -5.08438,13.673868 -7.48333,15.435344 m 6.7254,-2.206633 c -1.25988,4.589537 -3.12715,8.041229 -5.2769,10.792018 -1.10509,1.403308 -2.39587,2.510771 -3.78158,3.398798 m 6.95212,-1.02021 c -3.37389,7.274629 -8.8827,10.388413 -12.73436,11.517573 m 6.9908,1.15023 c -1.03524,1.09434 -2.06385,2.04577 -3.03905,2.86133 0,0 0,0 0,0 -4.61077,3.89295 -8.60029,5.36649 -11.94244,5.5064 m 7.05099,1.74875 c -5.0027,4.76237 -11.27465,6.46336 -14.72158,6.60102 -0.40985,0.0159 -0.78282,0.01 -1.1131,-0.0155 m 6.50067,2.75289 c -0.65752,0.39518 -1.30341,0.76535 -1.93496,1.1114 0,0 0,0 0,0 -6.40231,3.51745 -11.51084,4.66489 -14.30619,4.2995 m 6.33212,3.1158 c -7.10452,3.89483 -13.58654,5.16469 -16.48596,4.62711 m 6.20589,3.36286 c -1.24452,0.63942 -2.57271,1.22108 -3.92621,1.73477 -4.99345,1.89622 -10.24103,2.82388 -12.69371,2.35287 m 6.11364,3.52516 c -7.68368,3.58006 -13.69564,4.34315 -16.70834,3.71036 m 6.04663,3.64004 c -3.06344,1.41208 -5.83976,2.30002 -8.45901,2.82497 -2.87449,0.5763 -5.57749,0.71673 -8.30278,0.62689 m 6.00098,3.71433 c -7.0006,2.74307 -12.24293,3.62017 -16.79638,3.29181 m 5.97719,3.75307 c -7.66626,3.09728 -12.64429,3.97977 -16.80615,3.24428 m 5.98151,3.74757 c -5.92818,2.54732 -13.71275,3.9749 -16.79117,3.31738 m 6.00917,3.70037 c -7.5147,3.19141 -13.34892,4.06111 -16.47812,3.55946 -0.0934,-0.015 -0.18445,-0.0312 -0.27306,-0.0487 m 6.06466,3.6092 c -0.8899,0.41002 -1.7538,0.7787 -2.59616,1.10982 0,0 0,0 0,0 -5.19698,2.04445 -9.55735,2.64113 -14.09232,2.77108 m 6.17349,3.42168 c -5.56868,2.43504 -9.94298,3.79752 -13.89276,4.37465 -0.88256,0.12561 -1.7475,0.21029 -2.59826,0.26099 m 6.37527,3.0446 c -0.25136,0.13336 -0.4995,0.2644 -0.74451,0.39312 0,0 0,0 0,0 -6.50428,3.46053 -11.3762,5.32452 -15.27216,6.00574 m 141.21167,-97.5406 c -5.0027,4.76237 -11.27465,6.46336 -14.72158,6.60102 -0.40985,0.0159 -0.78282,0.01 -1.1131,-0.0155 m 6.50067,2.75289 c -0.65752,0.39518 -1.30341,0.76535 -1.93496,1.1114 0,0 0,0 0,0 -6.40231,3.51745 -11.51084,4.66489 -14.30619,4.2995 m 6.33212,3.1158 c -7.10452,3.89483 -13.58654,5.16469 -16.48596,4.62711 m 6.20589,3.36286 c -1.24452,0.63942 -2.57271,1.22108 -3.92621,1.73477 -4.99345,1.89622 -10.24103,2.82388 -12.69371,2.35287 m 6.11364,3.52516 c -7.68368,3.58006 -13.69564,4.34315 -16.70834,3.71036 m 6.04663,3.64004 c -3.06344,1.41208 -5.83976,2.30002 -8.45901,2.82497 -2.87449,0.5763 -5.57749,0.71673 -8.30278,0.62689 m 6.00098,3.71433 c -7.0006,2.74307 -12.24293,3.62017 -16.79638,3.29181 m 5.97719,3.75307 c -7.66626,3.09728 -12.64429,3.97977 -16.80615,3.24428 m 5.98151,3.74757 c -5.92818,2.54732 -13.71275,3.9749 -16.79117,3.31738 m 6.00917,3.70037 c -7.5147,3.19141 -13.34892,4.06111 -16.47812,3.55946 -0.0934,-0.015 -0.18445,-0.0312 -0.27306,-0.0487 m 6.06466,3.6092 c -0.8899,0.41002 -1.7538,0.7787 -2.59616,1.10982 0,0 0,0 0,0 -5.19698,2.04445 -9.55735,2.64113 -14.09232,2.77108 m 6.17349,3.42168 c -5.56868,2.43504 -9.94298,3.79752 -13.89276,4.37465 -0.88256,0.12561 -1.7475,0.21029 -2.59826,0.26099 m 6.37527,3.0446 c -0.25136,0.13336 -0.4995,0.2644 -0.74451,0.39312 0,0 0,0 0,0 -6.50428,3.46053 -11.3762,5.32452 -15.27216,6.00574 m -1.56864,2.03108 c 2.69126,-4.14962 5.95361,-7.95415 11.2154,-11.48386 0.48709,-0.54631 0.98526,-1.07506 1.49732,-1.58794 2.38079,-2.40175 5.16722,-4.54117 8.82811,-6.46752 3.20339,-3.11781 6.67,-5.57067 10.60918,-7.48837 0.0492,-0.0437 0.0985,-0.0872 0.1478,-0.13068 3.1119,-2.74139 6.5014,-5.02696 10.60171,-7.07872 3.32552,-2.8294 6.82596,-5.34635 10.79631,-7.06483 2.94116,-2.68705 6.36193,-5.1142 10.83617,-6.99535 3.02823,-2.68143 6.27681,-4.94204 10.80277,-7.00429 1.8718,-1.63914 3.78536,-3.09099 5.80377,-4.3809 1.56013,-0.99719 3.18225,-1.89617 4.89662,-2.71008 3.15839,-2.76099 6.52987,-5.08328 10.62067,-7.25432 2.92339,-2.62145 5.94526,-5.02729 9.33752,-6.89053 0.34975,-0.19222 0.70348,-0.37863 1.06151,-0.55894 2.76159,-2.84973 5.92389,-5.45899 10.16041,-7.74164 2.77157,-3.29631 5.76454,-6.20945 9.74683,-8.16329 0.14895,-0.22655 0.30389,-0.45076 0.4654,-0.67305 0,0 0,0 0,0 1.92255,-2.65017 4.54883,-4.76121 9.01964,-7.59687 1.91005,-2.08899 6.00284,-8.08345 6.68818,-8.89556 0.18462,-0.22188 0.37862,-0.44839 0.58509,-0.68298 2.51891,-5.097829 2.73935,-5.037668 5.78572,-10.498847 0.25868,-1.365109 0.46784,-2.688262 0.62446,-3.977318 0.37299,-2.706393 0.92379,-5.311482 1.69703,-7.997075 1.6e-4,-4.202512 0.3304,-8.004765 1.03879,-12.561097 -0.40058,-4.246832 -0.6952,-8.306601 -0.35048,-12.477834 -1.00852,-3.784869 -1.723,-7.531022 -1.96661,-12.252618 -0.2099,-0.510194 -0.41495,-1.017744 -0.61619,-1.529113 -1.26651,-3.228484 -2.19033,-6.109397 -3.20264,-10.235597 -2.25964,-3.736328 -3.99323,-6.965015 -5.74978,-10.883504 -2.82366,-3.298011 -4.78954,-5.825402 -7.63952,-9.624617 -0.10779,-0.08598 -0.21556,-0.17178 -0.32328,-0.257422 -3.16802,-2.5314993 -6.16273,-4.838914 -9.01208,-7.6919603 -3.53688,-1.6597896 -6.81045,-3.40292843 -10.68448,-6.1386355 -2.597,-0.5960048 -5.08978,-1.227364 -7.51807,-2.180552 -1.38728,-0.543303 -2.74609,-1.1892884 -4.10232,-1.9941913 -3.63526,0.091721 -5.44695,-0.1744885 -7.30029,-0.6951999 -1.67463,-0.4705023 -3.33065,-1.172242 -5.63009,-1.3883415 -6.32819,-0.5946922 -7.39888,1.2797271 -12.43342,0.1772652 -0.17626,0.045362 -0.3522,0.09032 -0.52813,0.1348931 -3.72867,0.9395736 -6.99065,1.5429171 -11.68646,1.9507699 -4.01145,1.6426827 -7.60945,2.8585601 -11.77936,3.8581244 -3.64198,2.08348967 -6.88126,3.671376 -11.12448,5.4991114 -3.34406,2.5820877 -6.52119,5.0145138 -10.17088,7.0307635 -2.57515,2.929312 -5.24679,5.595624 -9.00341,8.443549 -2.24589,3.409516 -4.22385,6.053556 -7.55729,9.741876 -0.0415,0.09007 -0.0829,0.179933 -0.12446,0.269612 0,0 0,0 0,0 -1.78527,3.804151 -3.52214,7.036917 -5.78286,10.522973 -1.18691,3.970289 -2.42161,7.38589 -4.20211,11.612087 -0.62003,4.152772 -1.23394,8.133696 -2.50904,12.118837 0.13124,3.893246 -0.0103,7.771603 -0.90822,12.443001 0.82397,4.170242 1.36015,8.169924 0.6547,12.516871 1.30579,3.272106 2.14641,6.072968 2.04358,11.828512 0.56406,2.444517 1.1163,4.281457 1.51241,5.463447 1.01759,3.02015 1.35782,3.06623 1.44193,3.16237 0.17562,0.20073 0.0752,0.43275 0.85287,4.30551 1.91809,3.56052 3.37685,6.92239 4.73329,11.67829 2.37147,3.6533 4.22541,7.13446 5.82633,11.11919 1.55722,1.99321 2.96251,3.97173 4.35286,6.14981 0.87728,1.364 1.7243,2.76984 2.59991,4.29265 2.98493,3.07189 5.74744,6.00655 8.1498,9.44421 3.23788,2.29053 6.07859,4.59228 9.38659,7.9516 2.96647,1.43487 5.2422,2.61819 8.41597,4.49413 0.77683,0.4569 1.56563,0.9564 2.36947,1.504 4.23803,1.35434 8.04986,3.23191 11.60942,5.82746 3.95777,1.48234 7.6786,3.49153 11.42374,6.30465 4.04052,1.73173 7.87249,3.83371 11.11391,6.76667 3.64796,1.57228 7.29345,3.77959 10.70924,7.22803 0,0 0,0 0,0 0.0294,0.0296 0.0587,0.0593 0.088,0.0892 3.99787,1.80937 7.73571,4.21632 10.40652,7.96273 2.50481,1.16801 4.48179,2.23476 6.7841,5.14019 0.56288,0.70738 1.16054,1.54444 1.78084,2.52595 2.57411,6.30277 3.6688,10.41978 3.53625,13.984 -3.35435,-3.9348 -2.4076,-3.04687 -4.92621,-6.23023 -1.62822,-1.01335 -3.58108,-2.78358 -5.51009,-4.78526 -1.16816,-1.20531 -2.38187,-2.53938 -3.52036,-3.84807 -2.70159,-1.29616 -6.46732,-4.60617 -9.90321,-7.8223 -0.87456,-0.43528 -1.7634,-0.92677 -2.68078,-1.48751 0,0 0,0 0,0 -2.34551,-1.43297 -4.82636,-3.28351 -7.75923,-5.77214 -3.23268,-1.72338 -4.69585,-2.3418 -10.79186,-6.72617 -2.98403,-0.88356 -7.30951,-3.54934 -11.10584,-6.27281 -3.82529,-1.25963 -8.14526,-3.50839 -11.36114,-5.83953 -1.26696,-0.10631 -3.33318,-0.8772 -5.41881,-1.85405 -2.63259,-1.24861 -4.99707,-2.90196 -6.2815,-4.2329 -3.33408,-1.41185 -6.99663,-3.96276 -10.64261,-8.21314 -2.30091,-1.78246 -5.20993,-4.00197 -9.10071,-9.82158 -1.76572,-1.37028 -3.6648,-3.74098 -5.34404,-6.54761 -0.83637,-1.38735 -1.60659,-2.85198 -2.29037,-4.3324 -2.84177,-3.20024 -5.21649,-7.53088 -6.41853,-11.56297 -2.20793,-2.07359 -4.83518,-8.66021 -5.22674,-12.12275 -2.45998,-4.54886 -2.62489,-6.85429 -3.55808,-10.62352 -0.17579,-0.70328 -0.36977,-1.45142 -0.60667,-2.33011 -1.7137,-3.02133 -2.65426,-8.040882 -2.67516,-13.038703 -1.27814,-3.099976 -1.55755,-8.180064 -1.0749,-13.265383 -0.64962,-3.509696 -0.63707,-7.897808 0.60344,-13.293795 0.0611,-2.860207 0.0818,-6.505873 2.30951,-13.050095 0.0231,-3.38354 1.66051,-8.235258 4.10234,-12.600949 0.93904,-4.212574 3.16842,-8.63019 5.9353,-11.897717 0.13002,-0.702809 0.48846,-1.626647 1.0141,-2.64762 1.66541,-3.191699 4.61209,-6.647958 6.76666,-8.194802 1.83737,-3.062979 4.79508,-6.335728 9.38032,-9.4548533 1.98381,-2.0470787 4.52094,-4.7293139 10.66491,-7.94038944 2.36912,-2.45132676 6.92338,-4.83107096 11.73765,-6.31011776 3.60832,-2.4119134 8.2845,-4.0990835 12.53473,-4.5810115 2.54091,-1.871872 9.47144,-3.109585 13.06912,-2.692883 0.96174,-0.310751 1.8237,-0.582291 2.42749,-0.765881 1.66283,-0.502792 2.50866,-0.698131 3.89039,-0.716977 1.10313,-0.01505 3.90264,0.109208 8.0306,0.687022 3.47028,-0.695757 8.56615,0.05742 13.31663,1.822208 2.11805,-0.05593 4.91054,0.568598 7.84978,1.700105 1.67124,0.642043 3.34315,1.43053 4.96483,2.3220197 3.50105,0.8153738 7.60134,2.6778501 11.94528,6.227857 2.46488,1.2937916 5.98592,3.10516041 10.62348,8.2783758 0.69477,0.4008851 1.4335,0.9363216 2.18839,1.5856319 2.45131,2.1196926 4.82012,5.2136236 6.66306,8.6095596 3.11441,3.118393 5.59616,7.465684 6.7779,11.630736 2.30226,2.263337 4.55852,8.916027 4.64878,12.597113 0.18683,0.406425 0.36517,0.826252 0.5343,1.260229 1.19419,3.073514 1.98231,6.965955 2.00726,11.834012 0.60766,2.860701 1.38459,6.288693 0.77412,13.232149 0.7873,3.287303 0.39011,8.387365 -0.76139,13.233229 0.22629,3.712721 -0.33892,7.898655 -1.48624,11.522452 -0.18146,0.581111 -0.38546,1.136894 -0.60803,1.664575 0.13912,1.571289 -0.47169,4.147082 -1.67394,6.719735 -1.19895,2.565568 -2.79995,4.755208 -4.07627,5.951778 -0.75654,1.58137 -1.46728,2.74109 -2.06154,3.58095 -1.29351,1.85601 -3.22586,3.59247 -5.86884,6.5354 -1.60927,3.09511 -5.28466,6.55467 -9.34141,9.33763 -0.36577,0.561 -0.82701,1.14345 -1.36621,1.73779 -2.076,2.29278 -5.21544,4.67287 -8.52788,6.7859 -2.3385,2.66438 -5.56649,5.27427 -10.28744,7.98895 -1.05013,0.94234 -1.99455,1.80957 -3.18143,2.75601 -1.58982,1.26816 -3.73561,2.77479 -7.30985,4.85524 -2.11636,2.44443 -6.38327,5.18772 -10.66891,7.34889 -1.95863,1.88818 -4.40271,3.69624 -6.91079,5.17698 -1.29105,0.76237 -2.59632,1.43583 -3.85719,1.98739 -1.6163,2.26032 -7.73756,6.02509 -10.80447,7.04415 -2.59191,2.38379 -5.9709,4.6209 -10.83344,6.99069 -2.65883,2.08424 -4.37369,3.57846 -10.76734,7.0168 -2.15186,2.33507 -6.47141,4.98809 -10.69411,7.11796 -0.65211,0.63187 -1.35736,1.25887 -2.09897,1.87076 -2.58326,2.13238 -5.63748,4.10173 -8.42052,5.45047 -1.4067,2.17105 -7.38082,6.44182 -10.12291,7.67848 -0.17664,0.2238 -0.35444,0.44045 -0.53339,0.65064 -2.9909,3.53258 -5.89526,4.84446 -8.71405,7.64278"
           style="display:inline;fill:#eac102;fill-opacity:1;stroke:#000000;stroke-width:0.99999994;stroke-linecap:butt;stroke-linejoin:miter;stroke-miterlimit:4;stroke-dasharray:none;stroke-opacity:1"
           id="path5574"
           inkscape:path-effect="#path-effect4378"
           inkscape:original-d="m -462.36365,36.498684 c 3.12053,0.607299 5.75562,4.138895 6.69025,6.40457 m -1.25615,-6.397675 c 3.4818,1.701992 5.75561,4.138833 6.69027,6.404555 m -1.25615,-6.39769 c 3.322,1.467332 5.82437,4.226953 6.69026,6.40457 m -1.25626,-6.39769 c 2.69743,1.088778 5.75563,4.138833 6.69029,6.404555 m -1.25617,-6.397721 c 3.50422,1.508909 5.77264,4.178931 6.69021,6.404586 m -1.25618,-6.397737 c 2.93362,1.148365 4.88625,3.40498 6.69026,6.40457 m -1.25619,-6.397721 c 3.10097,1.560106 5.14587,3.644809 6.69022,6.404586 m -1.25617,-6.397721 c 3.42545,1.569726 5.3847,3.51343 6.69024,6.404555 m -1.25693,-6.397862 c 2.69739,1.088778 5.75563,4.138818 6.69029,6.40454 m -1.25621,-6.397706 c 3.50421,1.508924 5.77264,4.178947 6.69021,6.404586 m -1.25617,-6.397722 c 2.93362,1.14835 4.88628,3.404965 6.69028,6.40454 m -1.25622,-6.397706 c 3.10097,1.560122 5.14587,3.644809 6.69023,6.404602 m -1.25615,-6.397753 c 3.42547,1.569726 5.38468,3.513461 6.69026,6.404571 m -1.08674,-6.360456 c 3.12053,0.607299 5.75562,4.138895 6.69024,6.40457 m -1.25615,-6.397674 c 3.48181,1.701992 5.75562,4.138833 6.69028,6.404554 m -1.25616,-6.39769 c 3.322,1.467332 5.82437,4.226954 6.69026,6.404571 m -1.25626,-6.39769 c 2.69744,1.088777 5.75563,4.138833 6.69029,6.404554 m -1.25617,-6.397721 c 3.50422,1.508909 5.77264,4.178932 6.69022,6.404586 m -1.25619,-6.397737 c 2.93363,1.148365 4.88625,3.404981 6.69026,6.404571 m -1.25618,-6.397722 c 3.10097,1.560107 5.14586,3.644809 6.69021,6.404586 m -1.25617,-6.397721 c 3.42545,1.569726 5.3847,3.51343 6.69025,6.404555 m -1.25694,-6.397861 c 2.69739,1.088777 5.75564,4.138817 6.6903,6.404539 m -1.25622,-6.397706 c 3.50422,1.508925 5.77264,4.178947 6.69021,6.404586 m -1.25616,-6.397721 c 2.93362,1.148349 4.88628,3.404965 6.69027,6.404539 m -1.25621,-6.397706 c 3.10096,1.560122 5.14586,3.644809 6.69022,6.404602 m -1.25615,-6.397753 c 3.42547,1.569727 5.38469,3.513462 6.69024,6.404571 m -71.89829,-6.486682 c 3.12053,0.607299 5.75562,4.138895 6.69024,6.40457 m -1.25615,-6.397674 c 3.48181,1.701992 5.75562,4.138833 6.69028,6.404554 m -1.25616,-6.39769 c 3.322,1.467332 5.82437,4.226954 6.69026,6.404571 m -1.25626,-6.39769 c 2.69744,1.088777 5.75563,4.138833 6.69029,6.404554 m -1.25617,-6.397721 c 3.50422,1.508909 5.77264,4.178932 6.69022,6.404586 m -1.25619,-6.397737 c 2.93363,1.148365 4.88625,3.404981 6.69026,6.404571 m -1.25618,-6.397722 c 3.10097,1.560107 5.14586,3.644809 6.69021,6.404586 m -1.25617,-6.397721 c 3.42545,1.569726 5.3847,3.51343 6.69025,6.404555 m -1.25694,-6.397861 c 2.69739,1.088777 5.75564,4.138817 6.6903,6.404539 m -1.25622,-6.397706 c 3.50422,1.508925 5.77264,4.178947 6.69021,6.404586 m -1.25616,-6.397721 c 2.93362,1.148349 4.88628,3.404965 6.69027,6.404539 m -1.25621,-6.397706 c 3.10096,1.560122 5.14586,3.644809 6.69022,6.404602 m -1.25615,-6.397753 c 3.42547,1.569727 5.38469,3.513462 6.69024,6.404571 m -0.869,-6.612908 c 3.12051,0.607299 5.7556,4.138895 6.69023,6.40457 m -1.25616,-6.397675 c 3.48181,1.701992 5.75562,4.138833 6.69028,6.404555 m -1.25615,-6.39769 c 3.322,1.467332 5.82436,4.226969 6.69026,6.40457 m -1.25627,-6.39769 c 2.69744,1.088778 5.75564,4.138833 6.69029,6.404555 m -1.25616,-6.397721 c 3.50422,1.508909 5.77264,4.178931 6.69021,6.404586 m -1.25618,-6.397737 c 2.93362,1.148365 4.88625,3.40498 6.69026,6.40457 m -1.25619,-6.397721 c 3.10097,1.560106 5.14587,3.644809 6.69021,6.404586 m -1.25616,-6.397721 c 3.42545,1.569726 5.3847,3.51343 6.69024,6.40457 m -1.25693,-6.397877 c 2.69739,1.088778 5.75563,4.138818 6.69029,6.40454 m -1.25622,-6.397706 c 3.50422,1.508924 5.77265,4.178947 6.69022,6.404586 m -1.25617,-6.397722 c 2.93362,1.14835 4.88628,3.404965 6.69027,6.404555 m -1.25621,-6.397705 c 3.10097,1.560106 5.14586,3.644793 6.69023,6.404586 m -1.25616,-6.397753 c 3.42547,1.569742 5.38469,3.513461 6.69026,6.404571 m -1.48008,-6.360518 c 3.12053,0.607299 5.75562,4.138895 6.69025,6.40457 m -1.25616,-6.397675 c 3.48181,1.701992 5.75562,4.138833 6.69028,6.404555 m -1.25615,-6.39769 c 3.322,1.467332 5.82436,4.226969 6.69026,6.40457 m -1.25627,-6.39769 c 2.69744,1.088778 5.75564,4.138833 6.69029,6.404555 m -1.25616,-6.397721 c 3.50421,1.508909 5.77264,4.178931 6.69021,6.404586 m -1.25618,-6.397737 c 2.93362,1.148365 4.88625,3.40498 6.69025,6.40457 m -1.25618,-6.397721 c 3.10097,1.560106 5.14587,3.644809 6.69021,6.404586 m -1.25616,-6.397721 c 3.42545,1.569726 5.3847,3.51343 6.69024,6.40457 m -1.25693,-6.397877 c 2.69739,1.088778 5.75563,4.138818 6.69029,6.40454 m -1.25622,-6.397706 c 3.50422,1.508924 5.77265,4.178947 6.69022,6.404586 m -1.25617,-6.397721 c 2.93362,1.148349 4.88628,3.404964 6.69027,6.404554 m -1.25621,-6.397705 c 3.10097,1.560106 5.14586,3.644793 6.69023,6.404586 m -1.25616,-6.397753 c 3.42547,1.569742 5.38469,3.513461 6.69026,6.404571 m -71.89831,-6.486682 c 3.12053,0.607299 5.75562,4.138895 6.69025,6.40457 m -1.25616,-6.397675 c 3.48181,1.701992 5.75562,4.138833 6.69028,6.404555 m -1.25615,-6.39769 c 3.322,1.467332 5.82436,4.226969 6.69026,6.40457 m -1.25627,-6.39769 c 2.69744,1.088778 5.75564,4.138833 6.69029,6.404555 m -1.25616,-6.397721 c 3.50421,1.508909 5.77264,4.178931 6.69021,6.404586 m -1.25618,-6.397737 c 2.93362,1.148365 4.88625,3.40498 6.69025,6.40457 m -1.25618,-6.397721 c 3.10097,1.560106 5.14587,3.644809 6.69021,6.404586 m -1.25616,-6.397721 c 3.42545,1.569726 5.3847,3.51343 6.69024,6.40457 m -1.25693,-6.397877 c 2.69739,1.088778 5.75563,4.138818 6.69029,6.40454 m -1.25622,-6.397706 c 3.50422,1.508924 5.77265,4.178947 6.69022,6.404586 m -1.25617,-6.397721 c 2.93362,1.148349 4.88628,3.404964 6.69027,6.404554 m -1.25621,-6.397705 c 3.10097,1.560106 5.14586,3.644793 6.69023,6.404586 m -1.25616,-6.397753 c 3.42547,1.569742 5.38469,3.513461 6.69026,6.404571 m 1.00134,0.0031 c -1.95302,0.265793 -3.82391,0.654589 -6.4396,-0.0062 -1.68408,0.606288 -3.36072,0.740142 -5.43615,-0.01245 -1.84531,0.613604 -3.60647,0.643211 -5.42869,5.3e-4 -1.75681,0.530013 -3.49057,0.547603 -5.43619,-0.01245 -1.82218,0.525296 -3.63205,0.720294 -5.42862,5.6e-4 -1.65385,0.652613 -3.42092,0.837088 -5.43617,-0.01245 -1.68407,0.606288 -3.36073,0.740126 -5.43621,-0.01245 -1.84531,0.613604 -3.60642,0.643226 -5.42865,5.76e-4 -1.75678,0.529982 -3.50207,0.553954 -5.44766,-0.0062 -1.82221,0.525312 -3.63208,0.72031 -5.42869,5.44e-4 -1.65381,0.652644 -3.4209,0.837135 -5.43617,-0.01245 -1.79613,0.851579 -3.60366,1.177006 -5.43617,-0.01245 -1.40532,0.879038 -3.02849,0.778698 -5.39939,-0.597447 -2.52973,0.114412 -3.35372,1.005795 -5.23946,0.55246 -1.68407,0.606288 -3.36073,0.740142 -5.43614,-0.01245 -1.84532,0.613604 -3.60649,0.643211 -5.42869,5.45e-4 -1.75681,0.529998 -3.49057,0.547588 -5.43621,-0.01245 -1.82218,0.525297 -3.63203,0.720295 -5.42862,5.61e-4 -1.65383,0.652612 -3.42092,0.837087 -5.43617,-0.01245 -1.68407,0.606287 -3.36072,0.740125 -5.43621,-0.01245 -1.84531,0.613603 -3.60641,0.643226 -5.42865,5.76e-4 -1.75678,0.529982 -3.50205,0.553969 -5.44764,-0.0062 -1.82223,0.525312 -3.63208,0.72031 -5.42869,5.45e-4 -1.65383,0.652644 -3.4209,0.837134 -5.43618,-0.01245 -1.79612,0.85158 -3.60367,1.177007 -5.43618,-0.01245 -2.99692,1.984736 -3.66662,0.185502 -5.76404,0.116902 -2.34692,-0.07674 -3.70633,1.382683 -5.48587,0.09122 -1.68407,0.606288 -3.36072,0.740141 -5.43614,-0.01245 -1.84532,0.613604 -3.60647,0.643211 -5.42867,5.29e-4 -1.75683,0.530014 -3.49059,0.547603 -5.43621,-0.01245 -1.82219,0.525297 -3.63205,0.720279 -5.42863,5.45e-4 -1.65384,0.652613 -3.42092,0.837103 -5.43616,-0.01245 -1.68408,0.606272 -3.36074,0.740126 -5.43621,-0.01245 -1.84531,0.613604 -3.60642,0.643227 -5.42865,5.76e-4 -1.75679,0.529982 -3.50207,0.553954 -5.44766,-0.0062 -1.82222,0.525312 -3.63208,0.72031 -5.42869,5.29e-4 -1.65381,0.652659 -3.42089,0.83715 -5.43618,-0.01245 -1.79612,0.85158 -3.60365,1.177007 -5.43616,-0.01245 -1.40532,0.879039 -2.83179,1.368362 -5.2027,-0.0078 -6.61617,-0.0372 -1.8407,1.285067 -5.82949,-0.0372 -1.68408,0.606287 -3.36074,0.740141 -5.43615,-0.01245 -1.84531,0.613604 -3.60649,0.643211 -5.42869,5.29e-4 -1.75681,0.530013 -3.49057,0.547603 -5.43621,-0.01245 -1.82218,0.525297 -3.63203,0.720279 -5.42861,5.61e-4 -1.65384,0.652597 -3.42093,0.837087 -5.43617,-0.01245 -1.68408,0.606272 -3.36073,0.740125 -5.43621,-0.01245 -1.84532,0.613603 -3.60641,0.643226 -5.42866,5.76e-4 -1.75678,0.529982 -3.50205,0.553954 -5.44764,-0.0062 -1.82223,0.525312 -3.63208,0.72031 -5.42869,5.29e-4 -1.65381,0.65266 -3.4209,0.83715 -5.43618,-0.01245 -1.79612,0.85158 -3.60367,1.177007 -5.43618,-0.01245 -1.4053,0.879039 -2.36681,1.368487 -4.73778,-0.0078 -2.61339,-2.767576 -4.13751,-4.242441 -5.52132,-6.393253 1.58095,-0.441754 2.53804,-0.174731 3.57842,-0.0014 1.34034,-0.841727 3.45313,-0.660645 5.4362,0.01245 1.2906,-0.801192 3.39274,-0.568167 5.42865,-5.14e-4 1.45979,-0.590924 3.17237,-0.640269 5.4362,0.01245 1.39099,-0.298373 2.40008,-0.634338 5.42867,-4.83e-4 1.30641,-0.771102 3.44517,-0.596777 5.43613,0.01245 1.70306,-0.705195 3.75824,-0.670747 5.43619,0.01245 1.0824,-0.992594 4.1169,-0.808446 5.42871,-4.82e-4 1.45971,-0.59094 3.17235,-0.640269 5.43614,0.01245 1.39099,-0.298358 2.40007,-0.63437 5.42864,-5.14e-4 1.30645,-0.771134 3.44522,-0.596746 5.43621,0.01245 1.70299,-0.705211 3.7622,-0.690657 5.44014,-0.0062 1.08239,-0.992609 4.1244,-0.794934 5.43618,0.01245 2.62432,-0.863036 3.03439,0.03705 5.60352,0.04405 1.34034,-0.841727 3.45311,-0.660645 5.43618,0.01245 1.29062,-0.801208 3.39276,-0.568198 5.42868,-5.45e-4 1.45978,-0.590909 3.17235,-0.640253 5.43618,0.01245 1.39099,-0.298358 2.40009,-0.634323 5.42867,-4.67e-4 1.30642,-0.771103 3.44519,-0.596793 5.43615,0.01245 1.70305,-0.705196 3.75823,-0.670748 5.43618,0.01245 1.08239,-0.99261 4.1169,-0.808446 5.4287,-4.98e-4 1.45973,-0.59094 3.17237,-0.640254 5.43615,0.01245 1.39099,-0.298357 2.40007,-0.634369 5.42864,-5.13e-4 1.30646,-0.771118 3.44522,-0.59673 5.43621,0.01245 1.70298,-0.705227 3.76219,-0.690672 5.44013,-0.0062 1.08239,-0.992609 4.12442,-0.794934 5.43618,0.01245 2.64584,-1.200293 1.5227,-1.153237 5.82122,-0.208307 1.34033,-0.841726 3.45313,-0.66066 5.4362,0.01245 1.29059,-0.801176 3.39273,-0.568166 5.42864,-5.13e-4 1.45978,-0.590909 3.17236,-0.640253 5.43619,0.01245 1.39099,-0.298358 2.40008,-0.634323 5.42867,-4.67e-4 1.3064,-0.771103 3.44517,-0.596793 5.43613,0.01245 1.70307,-0.705196 3.75824,-0.670748 5.4362,0.01245 1.08237,-0.99261 4.1169,-0.808446 5.4287,-4.99e-4 1.45971,-0.590939 3.17235,-0.640253 5.43615,0.01245 1.39099,-0.298372 2.40005,-0.634369 5.42864,-5.13e-4 1.30644,-0.771134 3.4452,-0.596746 5.43621,0.01245 1.70298,-0.705227 3.76219,-0.690657 5.44013,-0.0062 1.08239,-0.992594 4.12441,-0.794934 5.43618,0.01245 2.62432,-0.863036 2.64105,0.03705 5.21018,0.04405 1.34033,-0.84171 3.45311,-0.660629 5.43618,0.01245 1.29062,-0.801207 3.39277,-0.568181 5.42868,-5.29e-4 1.45977,-0.590924 3.17235,-0.640253 5.43618,0.01245 1.39099,-0.298357 2.40008,-0.634338 5.42867,-4.82e-4 1.30642,-0.771103 3.44519,-0.596777 5.43615,0.01245 1.70304,-0.705211 3.75822,-0.670748 5.43618,0.01245 1.08239,-0.992594 4.11691,-0.808446 5.4287,-4.83e-4 1.45972,-0.590939 3.17237,-0.640253 5.43615,0.01245 1.39099,-0.298357 2.40006,-0.634369 5.42864,-5.14e-4 1.30646,-0.771133 3.44521,-0.596745 5.43621,0.01245 1.703,-0.705226 3.76219,-0.690672 5.44015,-0.0062 1.08239,-0.99261 4.1244,-0.794935 5.43616,0.01245 2.01669,-1.052913 3.64074,-0.117058 5.4207,0.03923" />
        <g
           id="g5722"
           transform="matrix(0.85553428,-1.3394958,1.395666,0.80233708,-898.74242,503.23776)"
           style="opacity:1;fill:#eac102;fill-opacity:1;stroke:#000000;stroke-width:0.62549913;stroke-opacity:1">
          <path
             sodipodi:nodetypes="ccc"
             id="path5955-9-2-5-41-4-3-6-9-8-51-7-6-82"
             d="m 336.86893,210.49944 c -3.73976,-13.07661 5.92675,-4.94977 -6.00345,-7.37821 -11.8883,2.42438 -4.29273,-2.87994 -7.88687,10.52267"
             style="display:inline;fill:#eac102;fill-opacity:1;stroke:#000000;stroke-width:0.62549913;stroke-linecap:butt;stroke-linejoin:round;stroke-miterlimit:4;stroke-dasharray:none;stroke-opacity:1"
             inkscape:connector-curvature="0" />
          <path
             id="path6023-2-94-7-2-10-2-7-4-2-6-0-41-3-9"
             style="display:inline;fill:#eac102;fill-opacity:1;stroke:#000000;stroke-width:0.62549913;stroke-linecap:round;stroke-linejoin:round;stroke-miterlimit:4;stroke-dasharray:none;stroke-opacity:1"
             d="m 334.80649,211.66607 c -2.80169,-13.30791 4.01982,-4.92444 -3.4525,-8.54484 l -0.68315,2e-5 c -7.4723,3.62038 -2.5343,-1.61863 -5.33599,11.68928"
             inkscape:connector-curvature="0"
             sodipodi:nodetypes="cccc" />
          <path
             id="path6025-0-72-0-5-95-7-8-6-9-5-6-3-3-8-8"
             style="display:inline;fill:#eac102;fill-opacity:1;stroke:#000000;stroke-width:0.62549913;stroke-linecap:round;stroke-linejoin:round;stroke-miterlimit:4;stroke-dasharray:none;stroke-opacity:1"
             d="m 329.19224,214.91889 c 0.47451,-11.54498 -1.136,-6.65917 1.82019,-11.79764 l 0,-2e-5 c 2.95619,5.13849 0.71785,-0.79547 1.19233,10.74951"
             inkscape:connector-curvature="0"
             sodipodi:nodetypes="cccc" />
          <g
             id="g4924-8-8-4"
             style="display:inline;fill:#eac102;fill-opacity:1;stroke:#000000;stroke-width:2.35589743;stroke-miterlimit:4;stroke-dasharray:none;stroke-opacity:1"
             transform="matrix(-0.26089157,0,0,0.27019713,264.4019,11.464751)">
            <path
               sodipodi:nodetypes="csssc"
               inkscape:connector-curvature="0"
               style="fill:#eac102;fill-opacity:1;stroke:#000000;stroke-width:2.35589743;stroke-linecap:square;stroke-linejoin:round;stroke-miterlimit:4;stroke-dasharray:none;stroke-dashoffset:0;stroke-opacity:1"
               d="m -281.28417,700.5929 c 0,14.39254 11.62503,18.69557 25.96517,18.69557 14.34013,0 25.96516,-4.30303 25.96516,-18.69557 0,-14.39257 -11.62503,-26.06001 -25.96516,-26.06001 -14.33537,0 -25.95844,11.65993 -25.96517,26.04768"
               id="path5537-93-3-8-72-7-0-4-9-7-9-1-8-3" />
            <path
               style="fill:#eac102;fill-opacity:1;stroke:#000000;stroke-width:2.35589743;stroke-linecap:butt;stroke-linejoin:miter;stroke-miterlimit:4;stroke-dasharray:none;stroke-opacity:1"
               d="m 975.0309,746.88957 0,-44.75558"
               id="path4882-5-2-7"
               inkscape:connector-curvature="0"
               transform="translate(-1230.3499,-27.601106)"
               sodipodi:nodetypes="cc" />
            <path
               style="fill:#eac102;fill-opacity:1;stroke:#000000;stroke-width:2.35589743;stroke-linecap:butt;stroke-linejoin:miter;stroke-miterlimit:4;stroke-dasharray:none;stroke-opacity:1"
               d="m 986.64021,745.65391 c 5.39143,-15.00369 3.25628,-35.88949 -11.60931,-43.51992"
               id="path4884-9-0-6"
               inkscape:connector-curvature="0"
               transform="translate(-1230.3499,-27.601106)"
               sodipodi:nodetypes="cc" />
            <path
               style="display:inline;fill:#eac102;fill-opacity:1;stroke:#000000;stroke-width:2.35589743;stroke-linecap:butt;stroke-linejoin:miter;stroke-miterlimit:4;stroke-dasharray:none;stroke-opacity:1"
               d="m -266.92829,718.05281 c -5.3914,-15.00369 -3.2563,-35.88949 11.6093,-43.51992"
               id="path4884-5-4-5-9"
               inkscape:connector-curvature="0"
               sodipodi:nodetypes="cc" />
          </g>
          <path
             id="rect5533-94-0-3-0-9-8-1-5-4-2-1-4-2"
             d="m 326.29723,202.46615 9.43044,0 c 1.29448,0 2.3367,0.98768 2.3367,2.21453 0,1.22686 -1.04222,2.21454 -2.3367,2.21454 l -9.43044,0 c -1.29448,0 -2.33665,-0.98768 -2.33665,-2.21454 0,-1.22685 1.04217,-2.21453 2.33665,-2.21453 z"
             style="display:inline;fill:#eac102;fill-opacity:1;stroke:#000000;stroke-width:0.62549913;stroke-linecap:square;stroke-linejoin:round;stroke-miterlimit:4;stroke-dasharray:none;stroke-dashoffset:0;stroke-opacity:1"
             inkscape:connector-curvature="0" />
        </g>
        <g
           style="opacity:1;fill:#eac102;fill-opacity:1;stroke:#000000;stroke-width:0.62549913;stroke-opacity:1"
           transform="matrix(1.145658,1.1016604,-1.0605146,1.2111718,-627.73696,-385.13723)"
           id="g4382">
          <path
             inkscape:connector-curvature="0"
             style="display:inline;fill:#eac102;fill-opacity:1;stroke:#000000;stroke-width:0.62549913;stroke-linecap:butt;stroke-linejoin:round;stroke-miterlimit:4;stroke-dasharray:none;stroke-opacity:1"
             d="m 338.15835,209.23037 c -3.73976,-13.07661 4.63733,-3.6807 -7.29287,-6.10914 -11.8883,2.42438 -4.29273,-2.87994 -7.88687,10.52267"
             id="path4384"
             sodipodi:nodetypes="ccc" />
          <path
             sodipodi:nodetypes="cccc"
             inkscape:connector-curvature="0"
             d="m 336.09591,210.397 c -2.80169,-13.30791 2.7304,-3.65537 -4.74192,-7.27577 l -0.68315,2e-5 c -7.4723,3.62038 -2.5343,-1.61863 -5.33599,11.68928"
             style="display:inline;fill:#eac102;fill-opacity:1;stroke:#000000;stroke-width:0.62549913;stroke-linecap:round;stroke-linejoin:round;stroke-miterlimit:4;stroke-dasharray:none;stroke-opacity:1"
             id="path4386" />
          <path
             sodipodi:nodetypes="cccc"
             inkscape:connector-curvature="0"
             d="m 329.31013,213.16037 c 0.47451,-11.54498 -1.25389,-4.90065 1.7023,-10.03912 l 0,-2e-5 c 2.95619,5.13849 1.58146,-3.26437 2.05594,8.28061"
             style="display:inline;fill:#eac102;fill-opacity:1;stroke:#000000;stroke-width:0.62549913;stroke-linecap:round;stroke-linejoin:round;stroke-miterlimit:4;stroke-dasharray:none;stroke-opacity:1"
             id="path4388" />
          <g
             transform="matrix(-0.26089157,0,0,0.27019713,264.4019,11.464751)"
             style="display:inline;fill:#eac102;fill-opacity:1;stroke:#000000;stroke-width:2.35589743;stroke-miterlimit:4;stroke-dasharray:none;stroke-opacity:1"
             id="g4390">
            <path
               id="path4392"
               d="m -281.28417,700.5929 c 0,14.39254 11.62503,18.69557 25.96517,18.69557 14.34013,0 25.96516,-4.30303 25.96516,-18.69557 0,-14.39257 -11.62503,-26.06001 -25.96516,-26.06001 -14.33537,0 -25.95844,11.65993 -25.96517,26.04768"
               style="fill:#eac102;fill-opacity:1;stroke:#000000;stroke-width:2.35589743;stroke-linecap:square;stroke-linejoin:round;stroke-miterlimit:4;stroke-dasharray:none;stroke-dashoffset:0;stroke-opacity:1"
               inkscape:connector-curvature="0"
               sodipodi:nodetypes="csssc" />
            <path
               sodipodi:nodetypes="cc"
               transform="translate(-1230.3499,-27.601106)"
               inkscape:connector-curvature="0"
               id="path4394"
               d="m 975.0309,746.88957 0,-44.75558"
               style="fill:#eac102;fill-opacity:1;stroke:#000000;stroke-width:2.35589743;stroke-linecap:butt;stroke-linejoin:miter;stroke-miterlimit:4;stroke-dasharray:none;stroke-opacity:1" />
            <path
               sodipodi:nodetypes="cc"
               transform="translate(-1230.3499,-27.601106)"
               inkscape:connector-curvature="0"
               id="path4396"
               d="m 986.64021,745.65391 c 5.39143,-15.00369 3.25628,-35.88949 -11.60931,-43.51992"
               style="fill:#eac102;fill-opacity:1;stroke:#000000;stroke-width:2.35589743;stroke-linecap:butt;stroke-linejoin:miter;stroke-miterlimit:4;stroke-dasharray:none;stroke-opacity:1" />
            <path
               sodipodi:nodetypes="cc"
               inkscape:connector-curvature="0"
               id="path4398"
               d="m -266.92829,718.05281 c -5.3914,-15.00369 -3.2563,-35.88949 11.6093,-43.51992"
               style="display:inline;fill:#eac102;fill-opacity:1;stroke:#000000;stroke-width:2.35589743;stroke-linecap:butt;stroke-linejoin:miter;stroke-miterlimit:4;stroke-dasharray:none;stroke-opacity:1" />
          </g>
          <path
             inkscape:connector-curvature="0"
             style="display:inline;fill:#eac102;fill-opacity:1;stroke:#000000;stroke-width:0.62549913;stroke-linecap:square;stroke-linejoin:round;stroke-miterlimit:4;stroke-dasharray:none;stroke-dashoffset:0;stroke-opacity:1"
             d="m 326.29723,202.46615 7.77074,-1.79295 c 1.27374,-0.29389 2.3367,0.98768 2.3367,2.21453 0,1.22686 -1.06296,1.92065 -2.3367,2.21454 l -7.77074,1.79295 c -1.27375,0.29389 -2.33665,-0.98768 -2.33665,-2.21454 0,-1.22685 1.0629,-1.92064 2.33665,-2.21453 z"
             id="path4400"
             sodipodi:nodetypes="sssssss" />
        </g>
      </g>
      <path
         inkscape:connector-curvature="0"
         id="path4580"
         d="m -380.10576,-14.712884 c -1.38173,0.01885 -2.2278,0.214005 -3.89063,0.716797 -0.59998,0.182431 -1.4577,0.455377 -2.41211,0.763672 -0.005,-2.99e-4 -0.0102,-0.0017 -0.0156,-0.002 l 0.008,0.0039 c -0.003,9.8e-4 -0.005,9.72e-4 -0.008,0.002 -3.59768,-0.416702 -10.52745,0.819534 -13.06836,2.691406 -4.23382,0.480067 -8.88961,2.1576738 -12.49219,4.5546878 -0.01,0.00267 -0.0194,0.00513 -0.0293,0.00781 l 0.0156,0 c -0.01,0.00643 -0.0197,0.013094 -0.0293,0.019532 -4.80071,1.474878 -9.34209,3.847001 -11.7168,6.291015 l -0.002,0 c -0.006,0.00628 -0.0135,0.013255 -0.0195,0.019531 -6.10569,3.191066 -8.64463,5.856253 -10.62305,7.898438 -0.0134,0.00823 -0.0276,0.015182 -0.041,0.023437 l 0.0234,-0.00586 c -0.007,0.0073 -0.0164,0.016148 -0.0234,0.023438 -4.5717,3.1099082 -7.52474,6.3725702 -9.36328,9.4277342 -0.003,0.0027 -0.006,0.0051 -0.01,0.0078 l 0.006,-0.002 c -0.004,0.0071 -0.009,0.0144 -0.0137,0.02149 -2.15457,1.546844 -5.10022,5.003613 -6.76563,8.195312 -0.51934,1.008749 -0.8759,1.919532 -1.00976,2.619142 -0.005,0.0052 -0.009,0.01041 -0.0137,0.01562 l 0.0117,-0.0078 c -10e-4,0.006 -0.003,0.01354 -0.004,0.01953 -2.75838,3.25749 -4.97978,7.6585 -5.92383,11.85938 -0.005,0.0086 -0.0104,0.01674 -0.0156,0.02539 l 0.0117,-0.0098 c -0.002,0.0078 -0.004,0.01567 -0.006,0.02344 -2.44183,4.36569 -4.08041,9.21802 -4.10351,12.60156 -2.21648,6.51122 -2.2462,10.14824 -2.30664,13.00196 -0.004,0.01446 -0.01,0.02849 -0.0137,0.04296 l 0.0117,-0.01953 c -1.5e-4,0.0072 1.6e-4,0.01624 0,0.02344 -1.23782,5.38432 -1.25277,9.76559 -0.60742,13.27149 -7.4e-4,0.0046 -0.001,0.009 -0.002,0.01367 l 0.004,-0.0078 c 0.001,0.0057 9e-4,0.01194 0.002,0.01758 -0.48133,5.07139 -0.20473,10.136 1.06445,13.23828 -6.3e-4,0.01131 -0.001,0.02189 -0.002,0.03321 l 0.006,-0.01953 c 0.002,0.0043 0.004,0.0093 0.006,0.01367 0.0208,4.98583 0.95817,9.990032 2.66406,13.013672 0.002,0.009 0.002,0.0169 0.004,0.0254 l 0.002,-0.0117 c 0.002,0.003 0.004,0.007 0.006,0.01 0.2369,0.87869 0.42968,1.62683 0.60547,2.33007 0.93189,3.76399 1.09863,6.07112 3.54883,10.60743 0.001,0.007 0.003,0.0128 0.004,0.0195 l 0,-0.0117 c 0.002,0.004 0.004,0.006 0.006,0.01 0.39156,3.46254 3.01863,10.04751 5.22656,12.1211 1.19731,4.01621 3.55787,8.32891 6.38477,11.52539 0.004,0.01 0.007,0.0192 0.0117,0.0293 l -0.002,-0.0176 c 0.008,0.009 0.0156,0.0185 0.0234,0.0273 0.68378,1.48042 1.45465,2.94468 2.29102,4.33203 1.67122,2.79323 3.56176,5.15411 5.32031,6.52735 0.008,0.006 0.0157,0.0135 0.0234,0.0195 3.8621,5.77671 6.754,8.00341 9.04687,9.7793 0.012,0.0154 0.0231,0.0315 0.0352,0.0469 l -0.01,-0.0273 c 0.009,0.007 0.0201,0.0163 0.0293,0.0234 3.63256,4.23473 7.28126,6.7803 10.60547,8.19532 0.006,0.005 0.0101,0.0105 0.0156,0.0156 l -0.006,-0.01 c 0.009,0.004 0.0185,0.008 0.0273,0.0117 1.28443,1.33094 3.64866,2.98382 6.28125,4.23243 0.75474,0.3535 1.49237,0.66358 2.20508,0.9414 -2.49928,1.47705 -4.83185,3.23952 -7.08008,5.15235 -4.10031,2.05176 -7.48966,4.33673 -10.60156,7.07812 -0.0493,0.0435 -0.0992,0.0872 -0.14844,0.13086 -3.93918,1.9177 -7.40599,4.37047 -10.60938,7.48828 -3.66089,1.92635 -6.44733,4.06505 -8.82812,6.4668 -0.51206,0.51288 -1.00904,1.04158 -1.49609,1.58789 -4.04256,2.71183 -6.90056,5.58812 -9.23047,8.65625 -3.89201,-1.31662 -8.43351,-0.15754 -11.49414,3.33789 -1.01088,1.15447 -1.62589,2.30998 -1.93164,3.45898 -0.58053,-0.0501 -1.13593,0.0379 -1.64258,0.29297 -1.34317,-0.79338 -0.12477,2.82398 -11.53125,10.46094 l 3.97461,2.04883 c -0.77329,0.62072 -1.58215,1.25969 -2.51172,1.95898 l 17.00976,6.50977 c 0.16346,-0.28791 0.29237,-0.49216 0.44922,-0.76367 l 3.15039,1.62304 c 2.19172,-4.56434 3.83696,-6.94446 4.97852,-8.18945 0.47205,-0.14503 0.94252,-0.35242 1.40625,-0.62891 0.12038,-0.047 0.1932,-0.10702 0.26562,-0.16992 0.64531,-0.42348 1.2821,-0.96519 1.9043,-1.67578 l 0.002,-0.004 c 3.97493,-4.5437 3.98036,-11.35621 0.13086,-15.53126 l 2.19336,-0.0351 c 2.81879,-2.79832 5.72395,-4.11 8.71485,-7.64258 0.17895,-0.21019 0.35656,-0.42659 0.5332,-0.65039 2.74209,-1.23666 8.71635,-5.50864 10.12305,-7.67969 2.78304,-1.34874 5.83666,-3.31684 8.41992,-5.44922 0.73459,-0.60609 1.4351,-1.22772 2.08203,-1.85351 0.006,-0.006 0.0117,-0.0119 0.0176,-0.0176 4.2227,-2.12987 8.5415,-4.78407 10.69336,-7.11914 4.51846,-2.42991 6.67438,-3.8793 8.5039,-5.26172 2.3081,1.2773 4.78389,2.39468 7.08594,3.15625 0.01,0.008 0.0175,0.0158 0.0273,0.0234 l -0.0156,-0.0176 c 0.01,0.003 0.0197,0.007 0.0293,0.01 3.78624,2.71623 8.09883,5.37498 11.08203,6.26562 0.003,0.002 0.005,0.004 0.008,0.006 l -0.004,-0.006 c 0.007,0.002 0.0147,0.006 0.0215,0.008 6.06596,4.36276 7.5485,4.99896 10.74804,6.70313 0.0111,0.0104 0.0221,0.0228 0.0332,0.0332 l -0.0176,-0.0254 c 0.0102,0.005 0.0171,0.0102 0.0273,0.0156 2.93287,2.48863 5.41426,4.33851 7.75977,5.77148 0.90854,0.55534 1.78789,1.04245 2.6543,1.47461 0.005,0.005 0.009,0.0104 0.0137,0.0156 l -0.008,-0.0117 c 0.006,0.003 0.0132,0.007 0.0195,0.01 3.42252,3.20362 7.17178,6.49799 9.87109,7.80469 l 0.0254,0.0332 -0.0176,-0.0293 c 0.008,0.004 0.0173,0.01 0.0254,0.0137 1.13849,1.30869 2.35137,2.64234 3.51953,3.84765 1.105,1.14663 2.21049,2.19583 3.26563,3.0918 -1.80785,4.69026 0.15323,10.14944 4.94531,12.9043 1.27009,0.73014 2.4705,1.10558 3.60938,1.20312 0.10483,0.58452 0.36571,1.12568 0.75976,1.58203 -0.48358,1.44132 2.84046,-0.41351 12.5293,9.23633 l 1.46094,-4.11523 c 0.68751,0.58098 1.41014,1.20652 2.18359,1.89648 l 1.53125,-6.26953 c 0.61626,0.37886 1.22316,0.75035 1.91992,1.18945 l 1.11524,-4.87695 c -0.6972,-0.36413 -1.28315,-0.68368 -1.88868,-1.01172 l 1.03711,-4.24219 c -0.38014,-0.12552 -0.69167,-0.24271 -1.04687,-0.36523 l 1.18359,-3.33398 c -2.40215,-0.61398 -4.28358,-1.24002 -5.75976,-1.84766 0.74696,-1.6393 0.21721,-3.52676 -1.33985,-4.42188 -0.89771,-0.51607 -1.94589,-0.58586 -2.90234,-0.29492 -0.61971,-0.91235 -1.53306,-1.74665 -2.80273,-2.47656 l -0.004,-0.002 c -4.02502,-2.31151 -8.90785,-2.05966 -12.46875,0.26562 -0.14305,-0.3607 -0.27424,-0.70417 -0.42773,-1.08008 -0.6203,-0.98151 -1.21838,-1.81801 -1.78126,-2.52539 -2.30227,-2.90543 -4.27839,-3.97261 -6.7832,-5.14062 -2.67081,-3.74641 -6.40838,-6.15352 -10.40625,-7.96289 -0.0293,-0.0299 -0.0604,-0.0583 -0.0898,-0.0879 -3.41579,-3.44844 -7.06103,-5.65624 -10.70899,-7.22852 -3.24142,-2.93296 -7.07276,-5.03585 -11.11328,-6.76758 -3.74514,-2.81312 -7.46606,-4.82238 -11.42383,-6.30468 -0.17859,-0.13023 -0.36113,-0.25032 -0.54101,-0.37696 2.49657,-1.48317 4.4925,-2.95226 6.15625,-4.48242 3.06027,-1.01686 9.1588,-4.76739 10.79101,-7.0293 0.005,-0.002 0.009,-0.004 0.0137,-0.006 l -0.0117,0.002 c 0.003,-0.004 0.007,-0.008 0.01,-0.0117 1.26087,-0.55156 2.56641,-1.22591 3.85742,-1.98828 2.50434,-1.47853 4.9452,-3.28285 6.90235,-5.16797 l 0.002,0 c 0.003,-0.002 0.005,-0.005 0.008,-0.008 4.28564,-2.16117 8.55161,-4.90518 10.66797,-7.34961 3.57424,-2.08045 5.72073,-3.58731 7.31055,-4.85547 1.18171,-0.94232 2.12333,-1.80656 3.16797,-2.74414 0.004,-0.002 0.009,-0.004 0.0137,-0.006 l -0.01,0.002 c 0.003,-0.003 0.007,-0.005 0.01,-0.008 4.72095,-2.71468 7.94861,-5.3239 10.28711,-7.98828 3.31244,-2.11303 6.45134,-4.49433 8.52734,-6.78711 0.53671,-0.59159 0.99637,-1.16991 1.36133,-1.72852 0.005,-0.003 0.009,-0.005 0.0137,-0.008 l -0.01,0.004 c 7.5e-4,-0.001 0.001,-0.003 0.002,-0.004 4.05513,-2.78185 7.72957,-6.24177 9.33985,-9.33594 l 0,-0.002 c 2.64294,-2.94293 4.57563,-4.67915 5.86914,-6.53516 0.59373,-0.83912 1.30475,-2.00084 2.06054,-3.58008 l 0.002,0 0,-0.002 c 1.27632,-1.19657 2.87722,-3.3856 4.07617,-5.95117 1.20225,-2.572652 1.81295,-5.149412 1.67383,-6.720702 0.22257,-0.52768 0.42596,-1.08296 0.60742,-1.66407 1.14374,-3.61251 1.70895,-7.78224 1.48828,-11.48632 10e-4,-0.0053 0.002,-0.01033 0.004,-0.01563 l -0.006,0.0078 c -5.4e-4,-0.009 5.4e-4,-0.01836 0,-0.02734 1.1515,-4.84586 1.54901,-9.94707 0.76171,-13.23438 0.60736,-6.90801 -0.15743,-10.33361 -0.76367,-13.18554 5e-4,-0.01171 10e-4,-0.02345 0.002,-0.03516 l -0.006,0.01758 c -0.002,-0.0091 -0.004,-0.02019 -0.006,-0.0293 -0.0249,-4.86805 -0.81363,-8.76047 -2.00782,-11.83398 -0.16599,-0.42593 -0.34233,-0.83891 -0.52539,-1.23828 -0.003,-0.007 -0.007,-0.01448 -0.01,-0.02149 -0.09,-3.67166 -2.33474,-10.29821 -4.63086,-12.57812 -10e-4,-0.006 -0.002,-0.01155 -0.004,-0.01758 l 0,0.01172 c -0.004,-0.0043 -0.009,-0.0094 -0.0137,-0.01367 -1.17917,-4.156013 -3.65292,-8.490487 -6.75781,-11.607426 -0.003,-0.0058 -0.005,-0.01174 -0.008,-0.01758 l 0.002,0.0098 c -0.005,-0.0045 -0.009,-0.0092 -0.0137,-0.01367 -1.84294,-3.395936 -4.21276,-6.491636 -6.66407,-8.6113282 -0.75489,-0.64931 -1.49273,-1.183102 -2.1875,-1.583984 -4.62103,-5.154779 -8.13015,-6.97078 -10.59375,-8.263672 -0.008,-0.0071 -0.0155,-0.014395 -0.0234,-0.021485 l 0.008,0.013672 c -0.004,-0.00219 -0.01,-0.00563 -0.0137,-0.00781 -4.34394,-3.550007 -8.4443,-5.413142 -11.94531,-6.228516 -1.62168,-0.89149 -3.29361,-1.67827 -4.96485,-2.3203128 -2.9314,-1.128487 -5.71604,-1.753336 -7.83203,-1.701171 -0.007,-0.0033 -0.0141,-0.0065 -0.0215,-0.0098 l 0.0117,0.0098 c -0.003,6.4e-5 -0.005,-6.7e-5 -0.008,0 -4.74456,-1.762591 -9.83273,-2.515507 -13.30273,-1.824219 -0.005,-6.04e-4 -0.009,-0.0014 -0.0137,-0.002 l 0.006,0.0039 c -0.002,3.63e-4 -0.004,-3.64e-4 -0.006,0 -4.12796,-0.577814 -6.92812,-0.70255 -8.03125,-0.6875 z m 7.63476,7.2167968 c 0.52788,0.0064 1.1321,0.046 1.75586,0.0957 l 0.27344,0.101563 c -0.0274,-0.03123 -0.062,-0.06068 -0.0898,-0.0918 0.0742,0.0064 0.12943,0.0046 0.20508,0.01172 2.29944,0.2161 3.95623,0.91817 5.63086,1.388672 1.85334,0.520712 3.66357,0.787034 7.29883,0.695313 1.35623,0.804903 2.71624,1.450837 4.10352,1.99414 2.42829,0.953188 4.92057,1.585636 7.51757,2.181641 3.87403,2.735707 7.14672,4.478882 10.6836,6.138672 2.84935,2.853046 5.84565,5.1599072 9.01367,7.6914062 0.10772,0.08564 0.21448,0.171833 0.32227,0.257813 2.84994,3.799211 4.81501,6.325039 7.63867,9.623046 1.75655,3.918489 3.49036,7.148438 5.75,10.884768 1.01231,4.1262 1.93661,7.00589 3.20312,10.23437 0.20124,0.51137 0.40729,1.01911 0.61719,1.5293 0.24361,4.7216 0.95828,8.46904 1.9668,12.25391 -0.34472,4.17123 -0.051,8.22973 0.34961,12.47656 -0.70839,4.55633 -1.03891,8.35999 -1.03907,12.5625 -0.77324,2.68559 -1.32427,5.2897 -1.69726,7.99609 -0.15662,1.28906 -0.36437,2.61149 -0.62305,3.97656 -3.04637,5.46118 -3.2682,5.40221 -5.78711,10.500003 -0.20647,0.23459 -0.39936,0.46172 -0.58398,0.6836 -0.60796,0.72041 -3.89057,5.50439 -5.95899,8.03711 l -1.44726,0.80859 c 0.26767,-0.0112 0.54629,-0.0453 0.82226,-0.0742 -0.0322,0.036 -0.0744,0.0891 -0.10547,0.12305 -4.47081,2.83566 -7.09698,4.94749 -9.01953,7.59766 -0.16151,0.22229 -0.31589,0.44532 -0.46484,0.67187 -3.98229,1.95384 -6.97456,4.86775 -9.74609,8.16406 -4.23652,2.28265 -7.40052,4.89246 -10.16211,7.74219 -0.35803,0.18031 -0.7108,0.36641 -1.06055,0.55859 -3.39226,1.86324 -6.4145,4.26918 -9.33789,6.89063 -4.0908,2.17104 -7.46271,4.49292 -10.6211,7.25391 -1.71437,0.81391 -3.33635,1.71179 -4.89648,2.70898 -2.01766,1.28943 -3.92965,2.74247 -5.80078,4.38086 l -0.01,0.002 c 0.003,9e-5 0.005,-8e-5 0.008,0 -4.52596,2.06225 -7.77451,4.32248 -10.80274,7.00391 -2.85469,1.20023 -5.27778,2.62291 -7.42383,4.19336 -1.23345,-0.52424 -2.49886,-0.99747 -3.80859,-1.41602 -0.80384,-0.5476 -1.59231,-1.047 -2.36914,-1.5039 -3.17377,-1.87594 -5.44955,-3.05927 -8.41602,-4.49414 -3.308,-3.35932 -6.14884,-5.6626 -9.38672,-7.95313 -2.40236,-3.43766 -5.16546,-6.37147 -8.15039,-9.44336 -0.87561,-1.52281 -1.72233,-2.92897 -2.59961,-4.29297 -1.39035,-2.17808 -2.79629,-4.15718 -4.35351,-6.15039 -1.60092,-3.98473 -3.4547,-7.46584 -5.82617,-11.11914 -1.35644,-4.7559 -2.81437,-8.11721 -4.73242,-11.67773 -0.77767,-3.87276 -0.6779,-4.10396 -0.85352,-4.30469 -0.0841,-0.0961 -0.42382,-0.14391 -1.44141,-3.16406 -0.39611,-1.18199 -0.94766,-3.01838 -1.51172,-5.46289 0.10283,-5.755553 -0.73913,-8.556023 -2.04492,-11.828133 0.70545,-4.34694 0.16968,-8.34733 -0.65429,-12.51758 0.89792,-4.67139 1.03944,-8.54816 0.9082,-12.4414 1.2751,-3.98514 1.88973,-7.96637 2.50976,-12.11914 1.7805,-4.2262 3.01427,-7.643 4.20118,-11.61328 2.26072,-3.48606 3.99793,-6.71734 5.7832,-10.52149 0.0416,-0.08968 0.0835,-0.17946 0.125,-0.26953 3.33344,-3.68832 5.31075,-6.332672 7.55664,-9.742188 3.75662,-2.847921 6.42876,-5.514047 9.00391,-8.443359 3.64969,-2.0162492 6.82586,-4.4491622 10.16992,-7.0312502 4.24322,-1.827735 7.48302,-3.41651 11.125,-5.5 4.16991,-0.999564 7.76788,-2.214739 11.77929,-3.857422 4.69581,-0.407853 7.95887,-1.011598 11.6875,-1.951172 0.17593,-0.04457 0.35109,-0.0894 0.52735,-0.134765 4.40522,0.964654 5.7759,-0.349617 10.28906,-0.294922 z"
         style="display:inline;opacity:0.5;fill:#c87d00;fill-opacity:1;stroke:#000000;stroke-width:0.99999994;stroke-linecap:butt;stroke-linejoin:miter;stroke-miterlimit:4;stroke-dasharray:none;stroke-opacity:1" />
      <g
         transform="translate(-126,-8.0000009)"
         id="g4504">
        <path
           sodipodi:nodetypes="ccccccccccccccccc"
           inkscape:connector-curvature="0"
           id="path4336"
           d="m -269.87501,226.76405 21.00456,-112.80948 39.69532,-2.74302 9.07031,-7.53516 0.50586,-14.541016 -45.28711,3.0293 4.9707,-39.42383 -18.48242,-1.51562 -9.07031,8.54492 -4.4043,33.74414 -39.29883,1.66211 -9.07226,8.544916 -2.58945,13.11364 47.04324,-1.35714 -21.6784,118.1185 18.98633,0 z"
           style="opacity:1;fill:#eac102;fill-opacity:1;fill-rule:evenodd;stroke:#000000;stroke-width:0.99999994;stroke-linecap:round;stroke-linejoin:round;stroke-miterlimit:4;stroke-dasharray:none;stroke-dashoffset:100;stroke-opacity:1" />
        <path
           style="opacity:0.5;fill:#000000;fill-opacity:1;fill-rule:evenodd;stroke:#000000;stroke-width:0.99999994;stroke-linecap:round;stroke-linejoin:round;stroke-miterlimit:4;stroke-dasharray:none;stroke-dashoffset:100;stroke-opacity:1"
           d="m -269.87501,226.76405 21.00456,-112.80948 39.69532,-2.74302 9.07031,-7.53516 0.50586,-14.541016 -45.28711,3.0293 4.9707,-39.42383 -18.48242,-1.51562 -9.07031,8.54492 -4.4043,33.74414 -39.29883,1.66211 -9.07226,8.544916 -2.58945,13.11364 47.04324,-1.35714 -21.6784,118.1185 18.98633,0 z"
           id="path4440"
           inkscape:connector-curvature="0"
           sodipodi:nodetypes="ccccccccccccccccc" />
        <path
           style="opacity:1;fill:#eac102;fill-opacity:1;fill-rule:evenodd;stroke:#000000;stroke-width:0.99999994;stroke-linecap:round;stroke-linejoin:round;stroke-miterlimit:4;stroke-dasharray:none;stroke-dashoffset:100;stroke-opacity:1"
           d="m -258.39645,51.225222 -5.47462,41.950356 -47.29954,2 -2.48303,13.100752 46.86406,-1.53571 -22.53544,120.30946 19.45001,-0.28603 22.46502,-119.55223 47.30595,-3.53553 0.50508,-14.541323 -45.28565,3.030458 4.96954,-39.424974 z"
           id="path4338"
           inkscape:connector-curvature="0"
           sodipodi:nodetypes="ccccccccccccc" />
        <path
           style="fill:none;fill-rule:evenodd;stroke:#000000;stroke-width:1px;stroke-linecap:butt;stroke-linejoin:miter;stroke-opacity:1"
           d="m -322.83294,116.83496 9.1793,-8.55863"
           id="path4425"
           inkscape:connector-curvature="0"
           sodipodi:nodetypes="cc" />
        <path
           style="fill:none;fill-rule:evenodd;stroke:#000000;stroke-width:1px;stroke-linecap:butt;stroke-linejoin:miter;stroke-opacity:1"
           d="m -275.7897,115.47781 9.00012,-8.73719"
           id="path4427"
           inkscape:connector-curvature="0"
           sodipodi:nodetypes="cc" />
        <path
           sodipodi:nodetypes="cc"
           style="fill:none;fill-rule:evenodd;stroke:#000000;stroke-width:1px;stroke-linecap:butt;stroke-linejoin:miter;stroke-opacity:1"
           d="m -297.53986,232.84592 8.35715,-6.57143"
           id="path4429"
           inkscape:connector-curvature="0" />
        <path
           sodipodi:nodetypes="ccccccccccccc"
           inkscape:connector-curvature="0"
           id="path4175"
           d="m -258.39645,51.225222 -5.47462,41.950356 -47.29954,2 -2.48303,13.100752 46.86406,-1.53571 -22.53544,120.30946 19.45001,-0.28603 22.46502,-119.55223 47.30595,-3.53553 0.50508,-14.541323 -45.28565,3.030458 4.96954,-39.424974 z"
           style="opacity:1;fill:url(#radialGradient4183);fill-opacity:1;fill-rule:evenodd;stroke:#000000;stroke-width:0.99999994;stroke-linecap:round;stroke-linejoin:round;stroke-miterlimit:4;stroke-dasharray:none;stroke-dashoffset:100;stroke-opacity:1" />
      </g>
      <path
         sodipodi:nodetypes="cccccccccccccccccccccccccccccccccccccccccc"
         style="display:inline;fill:#eac102;fill-opacity:1;stroke:#000000;stroke-width:0.99999994;stroke-linecap:butt;stroke-linejoin:miter;stroke-miterlimit:4;stroke-dasharray:none;stroke-opacity:1"
         d="m -365.8256,156.44751 c -5.92818,2.54732 -13.71275,3.9749 -16.79117,3.31738 m 6.00917,3.70037 c -7.5147,3.19141 -13.34892,4.06111 -16.47812,3.55946 -0.0934,-0.015 -0.18445,-0.0312 -0.27306,-0.0487 m 6.06466,3.6092 c -0.8899,0.41002 -1.7538,0.7787 -2.59616,1.10982 l 0,0 c -5.19698,2.04445 -9.55735,2.64113 -14.09232,2.77108 m 6.17349,3.42168 c -5.91213,2.27315 -13.83058,4.15494 -19.91959,4.63564 m 9.80384,1.0446 c -0.25136,0.13336 -0.4995,0.2644 -0.74451,0.39312 l 0,0 c -6.50428,3.46053 -16.6262,4.96738 -20.52216,5.6486 m 63.36593,-33.16226 c -5.92818,2.54732 -13.71275,3.9749 -16.79117,3.31738 m -10.46895,7.25983 c -0.0934,-0.015 -0.18445,-0.0312 -0.27306,-0.0487 m 6.06466,3.6092 c -0.8899,0.41002 -1.7538,0.7787 -2.59616,1.10982 l 0,0 m -18.03458,11.873 c -0.25136,0.13336 -0.4995,0.2644 -0.74451,0.39312 l 0,0 m 51.59965,-33.24025 c -2.65883,2.08424 -13.12369,9.29275 -19.51734,12.73109 -2.15186,2.33507 -6.47141,4.98809 -10.69411,7.11796 -0.65211,0.63187 -1.35736,1.25887 -2.09897,1.87076 -2.58326,2.13238 -5.63748,4.10173 -8.42052,5.45047 -1.4067,2.17105 -7.38082,4.44182 -10.12291,5.67848 -0.17664,0.2238 -0.35444,0.44045 -0.53339,0.65064 -4.77661,2.99687 -9.53812,6.98732 -13.60691,9.07135 -4.24195,1.67797 -9.84316,3.96097 -14.9463,2.81346 3.76269,-3.6139 14.02504,-10.06129 19.28683,-13.591 0.48709,-0.54631 2.94954,-1.07506 3.4616,-1.58794 2.38079,-2.40175 6.63151,-4.54117 10.2924,-6.46752 3.20339,-3.11781 6.67,-5.57067 10.60918,-7.48837 0.0492,-0.0437 0.0985,-0.0872 0.1478,-0.13068 3.1119,-2.74139 6.5014,-5.02696 10.60171,-7.07872 3.32552,-2.8294 6.82596,-5.34635 10.79631,-7.06483 3.2983,0.52724 6.03573,0.65506 14.74462,-1.97515 z"
         id="path4514"
         inkscape:connector-curvature="0" />
      <path
         inkscape:connector-curvature="0"
         id="path4578"
         d="m -365.8256,156.44751 c -5.92818,2.54732 -13.71275,3.9749 -16.79117,3.31738 m 6.00917,3.70037 c -7.5147,3.19141 -13.34892,4.06111 -16.47812,3.55946 -0.0934,-0.015 -0.18445,-0.0312 -0.27306,-0.0487 m 6.06466,3.6092 c -0.8899,0.41002 -1.7538,0.7787 -2.59616,1.10982 l 0,0 c -5.19698,2.04445 -9.55735,2.64113 -14.09232,2.77108 m 6.17349,3.42168 c -5.91213,2.27315 -13.83058,4.15494 -19.91959,4.63564 m 9.80384,1.0446 c -0.25136,0.13336 -0.4995,0.2644 -0.74451,0.39312 l 0,0 c -6.50428,3.46053 -16.6262,4.96738 -20.52216,5.6486 m 63.36593,-33.16226 c -5.92818,2.54732 -13.71275,3.9749 -16.79117,3.31738 m -10.46895,7.25983 c -0.0934,-0.015 -0.18445,-0.0312 -0.27306,-0.0487 m 6.06466,3.6092 c -0.8899,0.41002 -1.7538,0.7787 -2.59616,1.10982 l 0,0 m -18.03458,11.873 c -0.25136,0.13336 -0.4995,0.2644 -0.74451,0.39312 l 0,0 m 51.59965,-33.24025 c -2.65883,2.08424 -13.12369,9.29275 -19.51734,12.73109 -2.15186,2.33507 -6.47141,4.98809 -10.69411,7.11796 -0.65211,0.63187 -1.35736,1.25887 -2.09897,1.87076 -2.58326,2.13238 -5.63748,4.10173 -8.42052,5.45047 -1.4067,2.17105 -7.38082,4.44182 -10.12291,5.67848 -0.17664,0.2238 -0.35444,0.44045 -0.53339,0.65064 -4.77661,2.99687 -9.53812,6.98732 -13.60691,9.07135 -4.24195,1.67797 -9.84316,3.96097 -14.9463,2.81346 3.76269,-3.6139 14.02504,-10.06129 19.28683,-13.591 0.48709,-0.54631 2.94954,-1.07506 3.4616,-1.58794 2.38079,-2.40175 6.63151,-4.54117 10.2924,-6.46752 3.20339,-3.11781 6.67,-5.57067 10.60918,-7.48837 0.0492,-0.0437 0.0985,-0.0872 0.1478,-0.13068 3.1119,-2.74139 6.5014,-5.02696 10.60171,-7.07872 3.32552,-2.8294 6.82596,-5.34635 10.79631,-7.06483 3.2983,0.52724 6.03573,0.65506 14.74462,-1.97515 z"
         style="display:inline;opacity:0.15;fill:#000000;fill-opacity:1;stroke:#000000;stroke-width:0.99999994;stroke-linecap:butt;stroke-linejoin:miter;stroke-miterlimit:4;stroke-dasharray:none;stroke-opacity:1"
         sodipodi:nodetypes="cccccccccccccccccccccccccccccccccccccccccc" />
      <path
         inkscape:connector-curvature="0"
         id="path4582"
         d="m -365.8256,156.44751 c -5.92818,2.54732 -13.71275,3.9749 -16.79117,3.31738 m 6.00917,3.70037 c -7.5147,3.19141 -13.34892,4.06111 -16.47812,3.55946 -0.0934,-0.015 -0.18445,-0.0312 -0.27306,-0.0487 m 6.06466,3.6092 c -0.8899,0.41002 -1.7538,0.7787 -2.59616,1.10982 l 0,0 c -5.19698,2.04445 -9.55735,2.64113 -14.09232,2.77108 m 6.17349,3.42168 c -5.91213,2.27315 -13.83058,4.15494 -19.91959,4.63564 m 9.80384,1.0446 c -0.25136,0.13336 -0.4995,0.2644 -0.74451,0.39312 l 0,0 c -6.50428,3.46053 -16.6262,4.96738 -20.52216,5.6486 m 63.36593,-33.16226 c -5.92818,2.54732 -13.71275,3.9749 -16.79117,3.31738 m -10.46895,7.25983 c -0.0934,-0.015 -0.18445,-0.0312 -0.27306,-0.0487 m 6.06466,3.6092 c -0.8899,0.41002 -1.7538,0.7787 -2.59616,1.10982 l 0,0 m -18.03458,11.873 c -0.25136,0.13336 -0.4995,0.2644 -0.74451,0.39312 l 0,0 m 51.59965,-33.24025 c -2.65883,2.08424 -13.12369,9.29275 -19.51734,12.73109 -2.15186,2.33507 -6.47141,4.98809 -10.69411,7.11796 -0.65211,0.63187 -1.35736,1.25887 -2.09897,1.87076 -2.58326,2.13238 -5.63748,4.10173 -8.42052,5.45047 -1.4067,2.17105 -7.38082,4.44182 -10.12291,5.67848 -0.17664,0.2238 -0.35444,0.44045 -0.53339,0.65064 -4.77661,2.99687 -9.53812,6.98732 -13.60691,9.07135 -4.24195,1.67797 -9.84316,3.96097 -14.9463,2.81346 3.76269,-3.6139 14.02504,-10.06129 19.28683,-13.591 0.48709,-0.54631 2.94954,-1.07506 3.4616,-1.58794 2.38079,-2.40175 6.63151,-4.54117 10.2924,-6.46752 3.20339,-3.11781 6.67,-5.57067 10.60918,-7.48837 0.0492,-0.0437 0.0985,-0.0872 0.1478,-0.13068 3.1119,-2.74139 6.5014,-5.02696 10.60171,-7.07872 3.32552,-2.8294 6.82596,-5.34635 10.79631,-7.06483 3.2983,0.52724 6.03573,0.65506 14.74462,-1.97515 z"
         style="display:inline;fill:#eac102;fill-opacity:1;stroke:#000000;stroke-width:0.99999994;stroke-linecap:butt;stroke-linejoin:miter;stroke-miterlimit:4;stroke-dasharray:none;stroke-opacity:1"
         sodipodi:nodetypes="cccccccccccccccccccccccccccccccccccccccccc" />
      <path
         sodipodi:nodetypes="cccccccccccccccccccccccccccccccccccccccccc"
         style="display:inline;opacity:0.5;fill:#c87d00;fill-opacity:1;stroke:#000000;stroke-width:0.99999994;stroke-linecap:butt;stroke-linejoin:miter;stroke-miterlimit:4;stroke-dasharray:none;stroke-opacity:1"
         d="m -365.8256,156.44751 c -5.92818,2.54732 -13.71275,3.9749 -16.79117,3.31738 m 6.00917,3.70037 c -7.5147,3.19141 -13.34892,4.06111 -16.47812,3.55946 -0.0934,-0.015 -0.18445,-0.0312 -0.27306,-0.0487 m 6.06466,3.6092 c -0.8899,0.41002 -1.7538,0.7787 -2.59616,1.10982 l 0,0 c -5.19698,2.04445 -9.55735,2.64113 -14.09232,2.77108 m 6.17349,3.42168 c -5.91213,2.27315 -13.83058,4.15494 -19.91959,4.63564 m 9.80384,1.0446 c -0.25136,0.13336 -0.4995,0.2644 -0.74451,0.39312 l 0,0 c -6.50428,3.46053 -16.6262,4.96738 -20.52216,5.6486 m 63.36593,-33.16226 c -5.92818,2.54732 -13.71275,3.9749 -16.79117,3.31738 m -10.46895,7.25983 c -0.0934,-0.015 -0.18445,-0.0312 -0.27306,-0.0487 m 6.06466,3.6092 c -0.8899,0.41002 -1.7538,0.7787 -2.59616,1.10982 l 0,0 m -18.03458,11.873 c -0.25136,0.13336 -0.4995,0.2644 -0.74451,0.39312 l 0,0 m 51.59965,-33.24025 c -2.65883,2.08424 -13.12369,9.29275 -19.51734,12.73109 -2.15186,2.33507 -6.47141,4.98809 -10.69411,7.11796 -0.65211,0.63187 -1.35736,1.25887 -2.09897,1.87076 -2.58326,2.13238 -5.63748,4.10173 -8.42052,5.45047 -1.4067,2.17105 -7.38082,4.44182 -10.12291,5.67848 -0.17664,0.2238 -0.35444,0.44045 -0.53339,0.65064 -4.77661,2.99687 -9.53812,6.98732 -13.60691,9.07135 -4.24195,1.67797 -9.84316,3.96097 -14.9463,2.81346 3.76269,-3.6139 14.02504,-10.06129 19.28683,-13.591 0.48709,-0.54631 2.94954,-1.07506 3.4616,-1.58794 2.38079,-2.40175 6.63151,-4.54117 10.2924,-6.46752 3.20339,-3.11781 6.67,-5.57067 10.60918,-7.48837 0.0492,-0.0437 0.0985,-0.0872 0.1478,-0.13068 3.1119,-2.74139 6.5014,-5.02696 10.60171,-7.07872 3.32552,-2.8294 6.82596,-5.34635 10.79631,-7.06483 3.2983,0.52724 6.03573,0.65506 14.74462,-1.97515 z"
         id="path4584"
         inkscape:connector-curvature="0" />
    </g>
  </g>
</svg>
